<svg version="1.1" id="Layer_1" xmlns="http://www.w3.org/2000/svg" x="0" y="0" viewBox="0 0 500 500" style="width:181px" xml:space="preserve" data-imageid="team-meeting-75" class="illustrations_image"><style>.st0_team-meeting-75{fill:#231f20}.st1_team-meeting-75{fill:#fff}.st2_team-meeting-75{fill:#68e1fd}.st3_team-meeting-75{fill:#d1d3d4}</style><g id="Chair_1_team-meeting-75"><path class="st0_team-meeting-75" d="M312.7 249.5v-99.8c0-8.8-7.2-16-16-16h-.5l-87.5 2.6c-8.8.3-15.8 7.7-15.5 16.5v.8l8.6 103.8 110.9-7.9z"/><path class="st0_team-meeting-75" d="M201.9 258.1c-.4 0-.7-.3-.7-.6l-8.7-103.8c-.8-9.2 6.1-17.3 15.2-18 .3 0 .6 0 .9-.1l87.5-2.6c9.2-.3 16.9 7 17.2 16.2v100.4c0 .4-.3.7-.6.7l-110.8 7.8zm94.8-123.7h-.5l-87.5 2.6c-8.4.3-15.1 7.4-14.8 15.8v.8l8.6 103.1 109.4-7.8v-99.2c.1-8.5-6.7-15.3-15.2-15.3zm16 115.1z"/></g><g id="Characer_Female_1_team-meeting-75"><path class="st1_team-meeting-75" d="M279.3 97.7c-13.1-18.4-41-14.3-54.1 2.3-6.9 8.7-9.9 20.3-18.2 27.7-4.4 3.9-10 6.3-15.2 9.1s-10.4 6.4-13 11.7-1.8 12.7 3.2 15.9c4.4 2.8 10.4 1.6 14.9 4.4-5.6.8-9.3 7.8-6.8 12.9 2.2 4.3 7.3 6.1 12 7.2 16.5 4.1 34.1 5.7 50.4.8 12.2-3.6 24.6-11.7 31.4-22.7 6.5-10.4 4.1-30.1 3.2-42-.7-8.7-2-17.6-6.5-25.1-.3-.7-.8-1.5-1.3-2.2z"/><path class="st0_team-meeting-75" d="M230.8 193.4c-9.7-.1-19.4-1.4-28.8-3.8-4.9-1.2-10.1-3.1-12.4-7.6-1.3-2.8-1.2-6 .3-8.7 1.1-2.1 2.9-3.8 5.1-4.7-1.8-.6-3.6-1-5.5-1.2-2.7-.4-5.4-.8-7.8-2.3-5.5-3.5-6.1-11.4-3.4-16.8 2.9-5.8 8.6-9.5 13.3-12 1.2-.6 2.4-1.2 3.6-1.9 4-2.1 8.1-4.2 11.5-7.2 4.7-4.2 7.8-10 10.7-15.6 2.1-4.2 4.5-8.3 7.4-12.1a39.5 39.5 0 0 1 31.3-14.6c10 .2 18.5 4.6 24 12.3.5.7 1 1.5 1.5 2.3 4.7 8 6 17.3 6.6 25.4l.3 3.5c1 12.3 2.4 29.2-3.6 38.9-6.5 10.4-18.4 19-31.8 23-7.5 2.2-14.9 3.2-22.3 3.1zM255 86.3c-11.4.1-22.1 5.2-29.3 14.1-2.8 3.7-5.2 7.7-7.2 11.8-3 5.7-6.1 11.6-11 15.9-3.5 3.1-7.7 5.3-11.8 7.4-1.2.6-2.4 1.2-3.6 1.9-4.5 2.4-10 5.9-12.7 11.4-2.4 4.8-1.9 11.9 2.9 15 2.1 1.3 4.6 1.7 7.3 2.1s5.3.8 7.6 2.2c.3.2.4.6.2.9-.1.2-.3.3-.5.3a8.58 8.58 0 0 0-6.2 11.8c2 4 7 5.7 11.5 6.9 19.1 4.8 35.9 5 50 .8 13.2-3.9 24.8-12.3 31.1-22.4 5.8-9.3 4.4-25.9 3.4-38.1l-.3-3.5c-.6-7.9-1.8-17.1-6.4-24.8-.4-.8-.9-1.5-1.4-2.2-5.2-7.3-13.4-11.5-22.9-11.8l-.7.3z"/><path class="st2_team-meeting-75 targetColor" d="M296.5 151.4c-.3-2.1-53.6-11.3-80.3 1.5-9.6 36.6-4.3 108.4-4.3 108.4l95.1-.7c0-.1.9-39.6-10.5-109.2z" style="fill:#68e1fd"/><path class="st0_team-meeting-75" d="M237.7 153.7S236 259.5 236 260.2s28.6 0 29.4-1.2 0-92.1 0-92.1l-23.6-5.1"/><path class="st0_team-meeting-75" d="M241.5 261.2c-1.8.1-3.7 0-5.5-.2-.4-.1-.7-.4-.6-.8 0-.7 1.7-105.5 1.7-106.5 0-.4.3-.7.7-.7.4 0 .7.3.7.7 0 1-1.5 97.9-1.7 106 3.5.4 25.5-.2 28.1-1.2.5-3.6.1-66.3-.1-91.1l-23.1-5c-.4-.1-.6-.5-.4-.9.1-.3.4-.5.7-.5l23.6 5.1c.3.1.5.4.5.7.2 27.4.6 91.2-.1 92.5-.2.4-.7 1.2-14.6 1.7-3.4.2-7 .2-9.9.2z"/><path class="st1_team-meeting-75" d="m264.6 152.1.7 17.4s-1.9 8-13.7 5.8-13.9-10.1-13.9-10.1l-.1-32.5s17.7-10.6 14.3-29.1c0 0 7.8 14.4 24.9 11.3 0 0 1 16.7.1 25.7s-12.3 11.5-12.3 11.5z"/><path class="st0_team-meeting-75" d="M255.5 176.4c-1.3 0-2.7-.1-4-.4-12-2.3-14.3-10.3-14.4-10.7v-.2l-.1-32.5c0-.2.1-.5.3-.6.2-.1 17.3-10.5 14-28.4-.1-.3.1-.7.5-.8.3-.1.7 0 .8.3.3.6 7.8 13.9 24.2 11 .2 0 .4 0 .6.1.2.1.2.3.3.5 0 .2 1 16.8.1 25.9-.9 8.4-9.9 11.3-12.3 12l.7 16.8v.2c-.2.1-1.9 6.8-10.7 6.8zm-17-11.4c.3.9 2.6 7.5 13.3 9.6 10.3 2 12.6-4.4 12.9-5.2l-.7-17.3c0-.3.2-.6.6-.7.1 0 10.9-2.4 11.8-10.9.8-7.8.2-21.5 0-24.8-8.9 1.4-17.8-2.2-23.3-9.4 1.2 15.7-12.3 25.2-14.6 26.7v32z"/><path class="st1_team-meeting-75" d="M243.1 131.5c-.5-1.6-1.4-3-2.8-3.9-1.3-.8-2.7-1.5-4.2-1.8-.8-.3-1.6-.4-2.5-.3-.6.1-1.1.4-1.6.7-1.2.7-2.2 1.8-2.7 3.1-.3 1.1-.3 2.2 0 3.3.2 1.2.6 2.4 1.1 3.5a9.2 9.2 0 0 0 12.3 4.3s.1 0 .1-.1"/><path class="st0_team-meeting-75" d="M238.8 141.8c-1.1 0-2.1-.2-3.2-.5-2.5-.8-4.6-2.6-5.7-5-.5-1.2-.9-2.4-1.1-3.7-.3-1.2-.3-2.5 0-3.7.5-1.5 1.6-2.7 3-3.5.6-.4 1.2-.6 1.9-.8.9-.1 1.9 0 2.8.3 1.6.4 3.1 1.1 4.4 2 1.4 1.1 2.5 2.6 3 4.3.1.4-.1.8-.5.9-.4.1-.8-.1-.9-.5-.4-1.4-1.3-2.7-2.5-3.6-1.2-.8-2.6-1.4-4-1.7-.7-.3-1.4-.4-2.1-.3-.5.1-1 .3-1.4.6a5.3 5.3 0 0 0-2.4 2.7c-.2 1-.2 2 0 3 .2 1.1.5 2.3 1 3.3 2 4.2 7.1 6 11.3 4 0 0 .1 0 .1-.1.3-.2.8 0 .9.3.2.3 0 .8-.3.9-1.3.8-2.8 1.1-4.3 1.1z"/><path class="st1_team-meeting-75" d="M265.3 124.9s6.8 8.6 5.5 10.2-5.4 1-5.4 1"/><path class="st0_team-meeting-75" d="M267.2 137c-.7 0-1.3-.1-2-.2-.4-.1-.6-.4-.5-.8.1-.4.4-.6.8-.6 1 .2 3.9.4 4.8-.7.4-.8-2.1-5.2-5.5-9.4-.2-.3-.2-.8.1-1 .3-.2.7-.2 1 .1 2.2 2.7 7 9.2 5.5 11.1-1 1.2-2.8 1.5-4.2 1.5z"/><ellipse transform="rotate(-87.64 258.64 121.45) scale(1.00005)" class="st0_team-meeting-75" cx="258.6" cy="121.5" rx="2.1" ry="1.5"/><ellipse transform="rotate(-81.3 269.63 121.14)" class="st0_team-meeting-75" cx="269.6" cy="121.1" rx="2.1" ry="1.5"/><path class="st1_team-meeting-75" d="M270.7 139.9s-14.8 9-17.4-4.8"/><path class="st0_team-meeting-75" d="M261.4 143.4c-1.3 0-2.6-.2-3.7-.7-2.6-1.2-4.3-3.7-5.1-7.5-.1-.4.2-.7.5-.8.4-.1.7.2.8.6.6 3.3 2.1 5.5 4.3 6.5 4.9 2.2 12-2.1 12.1-2.1.3-.2.8-.1 1 .2.2.3.1.8-.2 1-.2 0-5 2.8-9.7 2.8zM264.6 152.1s-9 .2-13.3-2.2c0 0 3.7 10.3 13.5 12.7l-.2-10.5z"/><path class="st0_team-meeting-75" d="M264.9 163.3h-.2c-10.1-2.5-13.9-12.7-14-13.1-.1-.4.1-.8.4-.9.2-.1.4 0 .6 0 4 2.3 12.8 2.1 12.9 2.1.4 0 .7.3.7.7l.2 10.5c.1.4-.2.7-.6.7zm-12.2-12c1.4 2.8 5 8.4 11.4 10.4l-.2-8.8c-1.9-.1-7.3-.3-11.2-1.6z"/><path class="st1_team-meeting-75" d="M383.1 160.1c-2.6-2.3-19.5 8.5-19.5 8.5.7-6.7 1.6-11.8 0-12s-8.2 17.9-8.2 17.9-21.7 31.7-23.5 32.6-35.4-55.7-35.4-55.7c-19.1 20.9-4.8 50.2-4.8 50.2s35.4 44.6 42.9 44.2c6-.4 26-36.2 33.5-49.9 0 0 5.2-8.4 7.3-11.5s9-9.6 12-13.3-1.7-8.6-4.3-11z"/><path class="st0_team-meeting-75" d="M334.5 246.4c-7.8 0-39.6-39.9-43.3-44.4-.2-.4-14.4-30.1 4.8-51 .1-.1.3-.2.5-.2s.4.1.5.3c12.5 21.1 31.8 52.5 34.8 55.3 2.2-2.2 14.7-20.1 23-32.1 6.7-18.4 8.3-18.3 8.8-18.2.4 0 .7.2.9.5.9 1.1.6 3.8 0 9.3-.1.5-.1 1-.2 1.6 5-3.1 16.6-10 19.2-7.7 5.2 4.7 6.8 8.9 4.3 11.8-1.3 1.5-3.2 3.5-5.2 5.7-2.4 2.4-4.7 4.9-6.8 7.6-2.1 3-7.2 11.4-7.2 11.5-10.1 18.6-28 49.8-34 50.2l-.1-.2zm-38.1-93.9c-17.7 20.2-4.3 48.5-4.1 48.8 14 17.6 36.8 43.8 42.2 43.8h.1c3.9-.2 16.5-19.2 33-49.6.1-.1 5.2-8.5 7.3-11.6 2.1-2.7 4.4-5.3 6.9-7.7 2-2.1 3.9-4.1 5.2-5.6 2.6-3.2-1.5-7.6-4.2-10.1-1.4-1.2-10.8 3.5-18.8 8.5-.3.2-.7.1-.9-.2-.1-.1-.1-.3-.1-.5l.3-2.9c.4-3.3.9-7.7.3-8.3-1.2 1.1-4.7 9.6-7.6 17.4 0 0 0 .1-.1.1-3.6 5.3-21.9 31.9-23.7 32.8-.8.4-1.6.8-19.2-27.8-7.4-11.7-14.8-24-16.6-27.1z"/><path class="st0_team-meeting-75" d="M367.8 179.3h-.2c-.3-.1-.5-.5-.4-.8 2.1-5.3-3.7-9.1-4-9.3a.65.65 0 1 1 .7-1.1c.1.1 7 4.6 4.5 10.8-.1.3-.4.4-.6.4z"/></g><g id="Desk_team-meeting-75"><path class="st1_team-meeting-75" d="M135.9 235.4h228.3v179H135.9z"/><path class="st0_team-meeting-75" d="M364.1 415H135.9c-.4 0-.6-.3-.6-.6v-179c0-.4.3-.6.6-.6h228.3c.4 0 .6.3.6.6v179c-.1.4-.3.6-.7.6zm-227.6-1.3h227V236.1h-227v177.6z"/></g><path id="paper_team-meeting-75" class="st3_team-meeting-75" d="m242.1 367-73-2.9c-.4 0-.7-.3-.7-.7l2-49.9c0-.2.1-.4.2-.5.1-.1.3-.2.5-.2l73 2.9c.4 0 .7.3.7.7l-2 49.9c0 .2-.1.4-.2.5-.1.1-.3.2-.5.2zm-72.3-4.3 71.6 2.9 1.9-48.6-71.6-2.9-1.9 48.6z"/><g id="Book_1_team-meeting-75"><path class="st3_team-meeting-75" d="m252.9 302.2-49.7-1.2c-.4 0-.7-.3-.7-.7l1.1-48.1c0-.4.3-.7.7-.7l49.7 1.2c.4 0 .7.3.7.7l-1.1 48c0 .5-.3.8-.7.8zm-49-2.5 48.3 1.2 1.1-46.6L205 253l-1.1 46.7z"/><path class="st3_team-meeting-75" d="m302.3 303.4-49.7-1.2c-.4 0-.7-.3-.7-.7l1.1-48c0-.2.1-.4.2-.5.1-.1.3-.2.5-.2l49.7 1.2c.2 0 .4.1.5.2.1.1.2.3.2.5l-1.1 48c0 .4-.3.7-.7.7zm-49-2.5 48.3 1.1 1.1-46.6-48.3-1.2-1.1 46.7zM244.8 293.8l-29.4-.7c-.4 0-.7-.3-.7-.7 0-.4.3-.7.7-.7l29.4.7c.4 0 .7.3.7.7 0 .4-.3.7-.7.7zM245 285.7l-29.4-.7c-.4 0-.7-.3-.7-.7 0-.4.3-.7.7-.7l29.4.7c.4 0 .7.3.7.7 0 .4-.3.7-.7.7zM245.2 277.6l-29.4-.7c-.4 0-.7-.3-.7-.7 0-.4.3-.7.7-.7l29.4.7c.4 0 .7.3.7.7 0 .3-.3.7-.7.7zM245.4 269.4l-29.4-.7c-.4 0-.7-.3-.7-.7 0-.4.3-.7.7-.7l29.4.7c.4 0 .7.3.7.7 0 .4-.3.7-.7.7zM245.6 261.3l-29.4-.7c-.4 0-.7-.3-.7-.7 0-.4.3-.7.7-.7l29.4.7c.4 0 .7.3.7.7 0 .4-.3.7-.7.7z"/><path class="st3_team-meeting-75" d="m292.3 270.6-29.4-.7c-.4 0-.7-.3-.7-.7s.3-.7.7-.7l29.4.7c.4 0 .7.3.7.7 0 .3-.3.7-.7.7zM292.5 262.4l-29.4-.7c-.4 0-.7-.3-.7-.7 0-.4.3-.7.7-.7l29.4.7c.4 0 .7.3.7.7 0 .4-.3.7-.7.7zM291.7 296.9l-30.2-.7c-.4 0-.7-.3-.7-.7l.5-19c0-.2.1-.4.2-.5.1-.1.3-.2.5-.2l30.2.7c.4 0 .7.3.7.7l-.5 19c0 .2-.1.4-.2.5-.1.1-.3.2-.5.2zm-29.5-2.1 28.8.7.4-17.6-28.8-.7-.4 17.6z"/></g><g id="Characer_Female_right_hand_team-meeting-75"><path class="st1_team-meeting-75" d="M217.2 153.5S178 200.4 173 216.2s32.1 65.3 32.1 65.3 12.1 15.7 17.9 12.4 0-20.7 0-20.7 10.2 5.8 8 1-15.6-8.6-15.6-8.6L198.8 216l13.4-16.7"/><path class="st0_team-meeting-75" d="M221.1 294.9c-6.3 0-15.4-11.6-16.6-13.1-1.5-2-37.2-49.9-32.2-65.8 5-15.7 42.6-61 44.2-62.9.2-.3.6-.3.9-.1.3.2.3.6.1.9-.4.5-39.1 47-44 62.4-4.8 15.3 31.6 64.2 32 64.7 3.3 4.2 12.7 14.8 17 12.2s1.3-15.2-.3-19.9c-.1-.3 0-.5.2-.7.2-.2.5-.2.7-.1 3.3 1.9 6.8 3.2 7.3 2.8 0-.3-.1-.6-.2-.9-1.7-3.7-11.6-7.2-15.2-8.3-.2-.1-.4-.2-.4-.4l-16.5-49.5c-.1-.2 0-.4.1-.6l13.4-16.7c.2-.3.6-.3.9-.1.3.2.3.6.1.9l-13.1 16.4 16.3 48.9c2.1.6 13.6 4.3 15.7 8.9.5 1.1.5 1.9 0 2.4-1.2 1.1-4.9-.5-7.4-1.9 1.3 4.4 4.4 16.9-.8 19.9-.6.4-1.4.6-2.2.6z"/></g><g id="Characer_Male_team-meeting-75"><path class="st1_team-meeting-75" d="M145.2 193.8s-1.7-11.5-10.9-14.4-36.1-2.4-38.9 18.2 7.2 35.2 15.7 39.6l20.5-2.1 13.6-41.3z"/><path class="st0_team-meeting-75" d="M111 237.9c-.1 0-.2 0-.3-.1-7.8-4-19-18.5-16-40.3.7-6.2 4.3-11.7 9.7-15 9.5-6 23.6-5.8 30.1-3.8 9.6 3 11.4 14.5 11.4 15v.3l-13.7 41.3c-.1.3-.3.5-.6.5l-20.5 2.1h-.1zm13.3-59.1c-6.3 0-13.6 1.3-19.2 4.9-5 3.1-8.3 8.2-9 14.1-2.9 20.9 7.7 34.8 15.1 38.8l19.9-2 13.5-40.7c-.2-1.4-2.3-11.1-10.4-13.7-3.3-1-6.6-1.4-9.9-1.4z"/><path class="st1_team-meeting-75" d="m131.7 198.4 1.8 10.8s-4.1-8.2-8-1.2 7.5 16.2 7.5 16.2l-2.4 10-21.2 2.1-2.8 21s31.4 4.6 30.9 3.8c-.2-.3 2.1-20.7 2.1-20.7s5.7 2.3 8.9-6.8-3.3-39.7-3.3-39.7l-13.5 4.5z"/><path class="st0_team-meeting-75" d="M136.8 261.8c-2.3 0-9.2-.7-30.3-3.8-.4 0-.6-.4-.6-.8l2.8-21.1c0-.3.3-.6.6-.6l20.7-2.1 2.2-9.1c-2-1.7-11.2-10-7.3-16.9 1.2-2.2 2.7-3.2 4.2-3.2 1.3.1 2.4.8 3.2 1.8l-1.3-7.7c0-.3.1-.7.5-.8L145 193c.2-.1.4 0 .6.1.2.1.3.3.3.5.3 1.3 6.5 30.9 3.2 40.1-1.2 3.6-3 5.9-5.3 7-1.1.5-2.4.7-3.6.5-.9 7.7-2.1 18.7-2 19.8 0 .2 0 .4-.1.5-.1.2-.2.3-1.3.3zm-29.4-5.1c10.4 1.5 26.4 3.7 29.4 3.8.1-1.7.5-6.3 2.1-20.2 0-.2.2-.4.3-.5.2-.1.4-.1.6-.1 1.1.4 2.4.3 3.4-.3 1.9-.9 3.5-3 4.6-6.1 2.8-8-2.2-33.8-3.1-38.6l-12.2 4.1 1.7 10.2c.1.3-.2.7-.5.8-.3.1-.7 0-.8-.4-.5-1-2.1-3.6-3.9-3.6-1 0-2 .8-2.9 2.5-3.7 6.4 7.2 15.3 7.3 15.4.2.2.3.4.2.7l-2.4 10c-.1.3-.3.5-.6.5l-20.6 2-2.6 19.8z"/><path class="st1_team-meeting-75" d="M146.2 209.8s8 10.5 6.8 12-5.3 1.6-5.3 1.6"/><path class="st0_team-meeting-75" d="M147.7 224.2c-.4 0-.7-.3-.7-.7 0-.4.3-.7.7-.7 1.5 0 4.1-.4 4.8-1.4.3-1-3.3-6.6-6.8-11.2-.2-.3-.2-.8.1-1 .3-.2.7-.2 1 .1 3.8 5 8.1 11.2 6.8 12.9s-5.4 2-5.9 2z"/><ellipse transform="rotate(-13.95 141.02 205.99)" class="st0_team-meeting-75" cx="141" cy="206" rx="1.1" ry="3"/><path class="st0_team-meeting-75" d="M146.6 234c-.2 0-.4 0-.6-.1-2.1-.5-2.2-5-2.1-6.4 0-.2.1-.4.3-.5.2-.1.4-.2.6-.1l4.8 1.1c.4.1.6.5.5.8-.1.4-.5.6-.8.5l-3.9-.9c.1 2 .5 3.9 1.1 4.1.3.1.6.1.9-.1.6-.5 1-1.2 1.1-1.9.1-.4.5-.6.8-.5s.6.5.5.8c-.2 1.1-.9 2.1-1.8 2.8-.5.3-1 .4-1.4.4z"/><path class="st1_team-meeting-75" d="M183.2 335.5s7.8 6.7 13.8 3.5 7.6-6.5 7.6-6.5 2 8.7 4.3 6.3a3.3 3.3 0 0 0-.1-4.6l-.1-.1s4.1 6.5 4.5 3-2.4-7.2-2.4-7.2 12.1 8.9 11.5 3.5-11.2-12.3-19.1-12.3-22.9 4.3-22.9 4.3"/><path class="st0_team-meeting-75" d="M193.4 340.6c-5.3 0-10.4-4.3-10.6-4.6-.3-.2-.3-.7-.1-1 .2-.3.7-.3 1-.1.1.1 7.5 6.3 13 3.5 5.6-3 7.3-6.2 7.3-6.2.1-.3.4-.4.7-.4.3 0 .5.3.6.5.7 2.8 1.9 6 2.8 6.2.1 0 .2 0 .3-.2.7-.6.9-1.6.6-2.5-.3-.5-.6-.9-.9-1.3-.2-.3-.1-.7.1-.9.3-.2.7-.2.9 0 .4.4.8.9 1 1.5.6.9 1.3 1.7 2.2 2.3 0-.1.1-.3.1-.4.3-3.2-2.2-6.7-2.3-6.8-.2-.3-.2-.7.1-.9.2-.2.6-.3.9-.1 4 3 9 5.7 10.2 5 .2-.1.2-.5.2-.9-.5-5.1-10.9-11.6-18.4-11.6-7.8 0-22.5 4.2-22.7 4.2-.4.1-.8 0-.9-.4-.1-.4 0-.8.4-.9h.1c.6-.2 15.1-4.3 23.1-4.3 8.3 0 19.2 7.1 19.8 12.9.2.9-.1 1.8-.9 2.2-1.8 1-6.2-1.4-9.2-3.4.8 1.6 1.1 3.3 1 5-.1 1-.5 1.5-1.1 1.6s-1.6-.4-2.4-1.3c-.2.6-.5 1.2-1 1.7-.4.5-1.1.8-1.7.6-1.6-.4-2.8-3.6-3.4-5.7a22.2 22.2 0 0 1-7 5.5c-1.1.9-2.4 1.2-3.8 1.2z"/><path class="st2_team-meeting-75 targetColor" d="M135.9 390s0-26.8 1.6-56.4 12.8-41.4 3.3-70.4-36.9-25.4-50.5-14.1c-27.7 22.9-53.2 93-38.7 142.7 0 0 31.6 13.4 84.3-1.8z" style="fill:#68e1fd"/><path class="st2_team-meeting-75 targetColor" d="M107.2 270.8c0 1.5-15.2 73.6-5.2 80.3s83.7-8.5 83.7-8.5l-.7-20.1-43.5-4.8s12.3-54.6-9.3-69.1-25 22.2-25 22.2z" style="fill:#68e1fd"/><path class="st0_team-meeting-75" d="M113.7 355.3c-8 0-15.9-1.8-19.1-7.9-7.1-13.8 12.1-87 13-90.1.1-.4.4-.6.8-.5.4.1.6.4.5.8v.1c-.2.8-19.9 75.8-13.1 89.1 6.7 13.1 38.7 4.2 39 4.1.4-.1.8.1.9.5.1.4-.1.8-.5.9a96.1 96.1 0 0 1-21.5 3zM141.4 318.4c-1.8-.1-11-.6-11.8-3.9-.8-3 9.2-32.1 11.2-38 .1-.4.5-.6.9-.4.4.1.6.5.4.9-4.6 13.3-11.6 35.1-11.1 37.2.4 1.7 6.4 2.7 10.5 2.8.4 0 .7.3.7.7-.1.3-.4.6-.8.7z"/></g><g id="Characer_Female_2_team-meeting-75"><path class="st1_team-meeting-75" d="M398.6 185.3s-12.7 4.8-12 21.7-3.5 35.1 11.1 33.8l.9 9.9 30.8 3.3s3.2-51.6-2.6-60.1-28.2-8.6-28.2-8.6z"/><path class="st0_team-meeting-75" d="m429.4 254.7-30.9-3.3c-.3 0-.6-.3-.6-.6l-.8-9.2c-3.1.2-5.5-.5-7.2-2.2-4.2-3.9-4-12-3.9-21.5.1-3.6.1-7.2 0-10.8-.4-9 3-14.6 5.9-17.7 1.8-2 4-3.6 6.5-4.7h.2c.9 0 22.9.1 28.8 8.8s2.8 58.4 2.7 60.6c0 .2-.1.4-.2.5-.1 0-.3.1-.5.1zm-30.2-4.6 29.5 3.1c.4-6.3 2.7-51.3-2.5-59s-25.7-8.2-27.5-8.2c-1.3.5-12.1 5.5-11.4 20.9.2 3.6.1 7.3 0 10.9-.1 8.7-.3 17 3.4 20.4 1.6 1.5 3.8 2.1 6.9 1.8.2 0 .4 0 .5.2.1.1.2.3.2.5l.9 9.4z"/><ellipse class="st1_team-meeting-75" cx="419.8" cy="207" rx="29.8" ry="32.7"/><path class="st0_team-meeting-75" d="M419.8 240.4c-16.8 0-30.5-15-30.5-33.4s13.7-33.4 30.5-33.4 30.5 15 30.5 33.4-13.7 33.4-30.5 33.4zm0-65.4c-16 0-29.1 14.4-29.1 32s13 32 29.1 32 29.1-14.4 29.1-32-13.1-32-29.1-32z"/><path class="st2_team-meeting-75 targetColor" d="M375.7 254.4c-14.8 5.2-62.9 81.7-54.5 95.4s43.6 5.8 43.6 5.8l-.7 24.6 90.9-1.5s20.5-90 7-112.8c-13.4-22.7-71.5-16.8-86.3-11.5z" style="fill:#68e1fd"/><path class="st0_team-meeting-75" d="M364.8 356.2c-.5 0-.7-.4-.7-.8.6-5.1 6.6-61.1 6.7-61.7 0-.4.4-.7.8-.6.4 0 .7.4.6.8-.1.6-6.1 56.6-6.7 61.7-.1.3-.4.6-.7.6z"/><path class="st1_team-meeting-75" d="M390.2 218.5c-.6-2.6.2-5.3 2.1-7.2.5-.5 1.2-.9 1.9-1 .9 0 1.7.4 2.2 1.2.5.7.8 1.5.9 2.4.6 2.3.6 4.7.2 7.1-.4 2.3-1.7 4.5-3.5 6"/><path class="st0_team-meeting-75" d="M394 227.7c-.2 0-.4-.1-.5-.3-.2-.3-.2-.7.1-1 1.7-1.4 2.8-3.4 3.2-5.6.4-2.3.3-4.6-.2-6.8-.1-.8-.4-1.5-.8-2.1-.3-.5-.9-.9-1.5-.9-.6.1-1.1.4-1.5.8a6.86 6.86 0 0 0-2 6.5c.1.4-.1.8-.5.9s-.8-.1-.9-.5v-.1c-.6-2.8.3-5.8 2.4-7.8.6-.7 1.4-1.1 2.3-1.2 1.1 0 2.2.5 2.8 1.5.5.8.8 1.7 1 2.6.6 2.4.7 4.9.2 7.3-.4 2.5-1.8 4.8-3.7 6.4-.1.2-.2.3-.4.3zM415 188c1.3 4 3.7 7.5 7 10.2 3.6 3.2 8.3 5 13.1 5.2 3.8-.1 8-2.1 8.7-5.9.4-2.5-.9-5-2.4-7-4.4-6.1-11.2-11.3-18.5-13.2-2.3-.6-5.5-1.2-7.3.7-2.4 2.4-1.5 7.3-.6 10z"/><path class="st0_team-meeting-75" d="M434.9 204.1c-4.9-.2-9.6-2-13.3-5.3-3.4-2.7-5.9-6.4-7.3-10.5-.6-1.8-2.2-7.8.8-10.7 2.1-2 5.3-1.5 8-.8 7 1.8 14.1 6.9 18.9 13.4 1.3 1.8 3 4.6 2.5 7.5-.7 4.1-5.2 6.4-9.4 6.4h-.2zm-15.8-26.7c-1.1-.1-2.2.3-3 1.1-1.9 1.9-1.5 6-.4 9.3 1.3 3.9 3.7 7.3 6.9 9.9 3.5 3.1 8 4.9 12.6 5 3.5 0 7.4-1.9 8-5.3.3-1.9-.4-3.9-2.3-6.5-4.6-6.4-11.4-11.2-18.1-12.9-1.3-.3-2.5-.5-3.7-.6z"/><ellipse transform="rotate(-60 436.4 181.4)" class="st1_team-meeting-75" cx="436.4" cy="181.4" rx="19" ry="21.4"/><path class="st0_team-meeting-75" d="M438.5 201.7c-4.2 0-8.3-1.1-11.9-3.3-5-2.8-8.7-7.4-10.5-12.8-1.8-5.1-1.3-10.6 1.4-15.3 5.4-9.4 18.4-12.1 28.9-6s14.7 18.7 9.2 28.1c-2.7 4.6-7.3 7.9-12.6 8.8-1.5.4-3 .5-4.5.5zm-4.2-39.2c-6.5 0-12.6 3-15.8 8.6a17.2 17.2 0 0 0-1.2 14.2 22.52 22.52 0 0 0 25.3 14.6c4.9-.9 9.1-3.9 11.7-8.2 5-8.7 1.1-20.5-8.7-26.2-3.5-1.9-7.3-3-11.3-3z"/></g><g id="Book_2_team-meeting-75"><path class="st3_team-meeting-75" d="M331.9 394.4h-61.4c-.4 0-.7-.3-.7-.7v-35.6c0-.4.3-.7.7-.7h61.4c.4 0 .7.3.7.7v35.6c0 .4-.3.7-.7.7zm-60.7-1.4h60v-34.1h-60V393z"/><path class="st3_team-meeting-75" d="M331.9 400.7h-61.4c-.4 0-.7-.3-.7-.7v-6.3c0-.4.3-.7.7-.7h61.4c.4 0 .7.3.7.7v6.3c0 .4-.3.7-.7.7zm-60.7-1.4h60v-4.9h-60v4.9zM288.3 387.2H278c-.4 0-.7-.3-.7-.7v-22.3c0-.4.3-.7.7-.7h10.3c.4 0 .7.3.7.7v22.3c0 .4-.3.8-.7.7 0 .1 0 .1 0 0zm-9.6-1.3h8.9V365h-8.9v20.9z"/></g><path id="Card_team-meeting-75" class="st3_team-meeting-75" d="M296.4 340.6h-22.6c-.4 0-.7-.3-.7-.7v-15.2c0-.4.3-.7.7-.7h22.6c.4 0 .7.3.7.7v15.2c0 .4-.3.7-.7.7zm-21.9-1.4h21.2v-13.9h-21.2v13.9z"/><g id="Chair_2_team-meeting-75"><path class="st0_team-meeting-75" d="M457.8 275.8c-10.6.4-23.8 1.1-33.5 1.5-7.6.4-13.7 6.3-14.5 13.8L402 372h-37.9v31.8l96.4-2.9 13.1-108c1-8.4-4.9-16-13.3-17.1h-2.5z"/><path class="st0_team-meeting-75" d="M364.1 404.6c-.2 0-.4-.1-.5-.2-.1-.1-.2-.3-.2-.5v-31.8c0-.4.3-.7.7-.7h37.3l7.8-80.3c.8-7.9 7.2-14 15.1-14.4 9.4-.5 22.8-1.1 33.5-1.5 8.8-.4 16.3 6.5 16.6 15.3 0 .9 0 1.7-.1 2.6l-13.1 108c0 .3-.3.6-.7.6l-96.4 2.9zm.7-31.8v30.4l95.1-2.9 13-107.4c1-8-4.7-15.3-12.7-16.3-.8-.1-1.6-.1-2.4-.1-10.7.4-24.1 1.1-33.5 1.5-7.2.4-13.1 6-13.8 13.2l-7.9 80.9c0 .4-.3.6-.7.6h-37.1zm93-97z"/></g><g id="Chair_3_team-meeting-75"><path class="st0_team-meeting-75" d="M42.6 275.9c10.4.4 23.2 1 32.7 1.5 7.8.4 14.1 6.4 14.9 14.2l7.9 80.6H136V404l-96.6-3-13-107.5c-1-8.6 5.1-16.5 13.7-17.5.8-.1 1.7-.2 2.5-.1z"/><path class="st0_team-meeting-75" d="m135.9 404.6-96.5-2.9c-.3 0-.6-.3-.7-.6l-13-107.5c-1.1-9 5.3-17.2 14.3-18.3.9-.1 1.8-.1 2.7-.1 10.6.4 23.6 1 32.7 1.5 8.1.4 14.7 6.7 15.5 14.8l7.8 79.9H136c.4 0 .7.3.7.7v31.8c0 .2-.1.4-.2.5-.2.1-.4.2-.6.2zM40 400.3l95.1 2.9v-30.4H98c-.4 0-.7-.3-.7-.6l-7.8-80.6c-.7-7.4-6.8-13.2-14.3-13.6-9-.4-22.1-1.1-32.7-1.5A15 15 0 0 0 27 293.4l13 106.9z"/></g></svg>