<svg width="196" height="32" fill="none" xmlns="http://www.w3.org/2000/svg"><path d="M31.841 14.348a.844.844 0 0 0-.005-.05C30.985 6.273 24.19 0 15.963 0 7.161 0 0 7.178 0 16c0 8.823 7.16 16 15.963 16 8.802 0 15.963-7.177 15.963-16 0-.558-.029-1.109-.085-1.652Zm-12.488-.984a4.043 4.043 0 0 0-4.034 4.043v2.322h-2.446v-2.322c0-2.23-1.81-4.043-4.033-4.043a4.043 4.043 0 0 0-4.034 4.043v2.322H2.21A14.28 14.28 0 0 1 1.716 16c0-1.248.161-2.459.463-3.613h27.568c.084.322.157.649.219.979l-.1-.002a4.043 4.043 0 0 0-4.033 4.043v2.322h-2.446v-2.322c0-2.23-1.81-4.043-4.034-4.043Zm9.825-2.697H2.748c.07-.174.143-.346.22-.517h25.99c.077.17.15.343.22.517ZM15.963 1.72c5.083 0 9.553 2.683 12.074 6.71H3.89c2.521-4.027 6.99-6.71 12.074-6.71Zm10.66 23.742h-5.597a.86.86 0 0 0 0 1.72h3.786a14.157 14.157 0 0 1-8.849 3.098 14.167 14.167 0 0 1-9.364-3.527h.095a.86.86 0 0 0 0-1.72H4.937c-.168-.207-.33-.418-.487-.633h1.214a.86.86 0 0 0 0-1.72h-2.29c-.211-.4-.405-.81-.578-1.23h2.868a.86.86 0 0 0 .859-.86v-3.183c0-1.281 1.039-2.323 2.317-2.323a2.322 2.322 0 0 1 2.317 2.323v3.182c0 .475.384.86.858.86h4.162a.86.86 0 0 0 .859-.86v-3.182c0-1.281 1.04-2.323 2.317-2.323a2.322 2.322 0 0 1 2.317 2.323v3.182c0 .475.384.86.858.86h4.163a.86.86 0 0 0 .858-.86v-3.182c0-1.281 1.04-2.323 2.317-2.323.106 0 .211.01.315.023a14.24 14.24 0 0 1-3.558 10.355Z" fill="#1A365D"/><path d="M11.93 24.4h3.904a.86.86 0 0 0 0-1.72H11.93a.86.86 0 0 0 0 1.72ZM17.68 25.462h-7.381a.86.86 0 0 0 0 1.72h7.38a.86.86 0 0 0 0-1.72ZM26.863 22.68h-4.378a.86.86 0 0 0 0 1.72h4.378a.86.86 0 0 0 0-1.72ZM37.87 11.315V9.91h9.818v1.406H43.57V23h-1.585V11.315h-4.117Zm13.568 5.779V23h-1.509V9.91h1.509v4.806h.128c.23-.507.575-.91 1.035-1.208.465-.303 1.083-.454 1.854-.454.67 0 1.255.134 1.758.403.503.264.893.67 1.17 1.22.28.546.421 1.24.421 2.084V23h-1.508v-6.136c0-.78-.202-1.383-.607-1.81-.4-.43-.957-.645-1.669-.645-.494 0-.937.104-1.33.313a2.289 2.289 0 0 0-.92.914c-.221.4-.332.887-.332 1.458Zm13.243 6.11c-.946 0-1.762-.208-2.448-.626a4.204 4.204 0 0 1-1.58-1.764c-.366-.759-.549-1.64-.549-2.646s.183-1.892.55-2.66c.37-.77.886-1.372 1.547-1.802.664-.435 1.44-.652 2.326-.652.512 0 1.017.085 1.515.256.499.17.953.447 1.362.83.409.38.735.883.978 1.51.243.626.364 1.397.364 2.313v.64h-7.568v-1.305h6.034c0-.554-.11-1.048-.332-1.483a2.505 2.505 0 0 0-.934-1.029c-.4-.251-.873-.377-1.419-.377-.6 0-1.12.15-1.56.447-.434.295-.768.678-1.003 1.151a3.38 3.38 0 0 0-.351 1.521v.87c0 .741.127 1.37.383 1.885.26.512.62.902 1.08 1.17.46.264.995.396 1.605.396.396 0 .754-.055 1.074-.166.324-.115.603-.285.837-.511.234-.23.415-.516.543-.857l1.458.41a3.23 3.23 0 0 1-.774 1.303c-.362.371-.81.66-1.342.87-.533.204-1.132.306-1.796.306ZM76.308 23V9.91h4.577c.911 0 1.664.157 2.256.472.592.311 1.033.73 1.323 1.26.29.524.435 1.105.435 1.744 0 .563-.1 1.027-.3 1.394a2.337 2.337 0 0 1-.78.87c-.32.212-.667.37-1.042.472v.128c.4.026.803.166 1.208.422.405.256.743.622 1.016 1.1.273.477.41 1.06.41 1.75 0 .657-.15 1.247-.448 1.771-.299.524-.77.94-1.413 1.247-.643.307-1.48.46-2.512.46h-4.73Zm1.585-1.406h3.145c1.035 0 1.77-.2 2.205-.601.44-.405.659-.895.659-1.47 0-.444-.113-.852-.34-1.227a2.451 2.451 0 0 0-.964-.908c-.418-.23-.912-.345-1.483-.345h-3.222v4.55Zm0-5.932h2.94a2.9 2.9 0 0 0 1.292-.281c.387-.188.694-.452.92-.793.23-.34.345-.741.345-1.202 0-.575-.2-1.063-.6-1.463-.401-.405-1.036-.608-1.905-.608h-2.992v4.347ZM87.81 23v-9.818h1.458v1.483h.102c.179-.486.503-.88.972-1.183a2.86 2.86 0 0 1 1.585-.454c.11 0 .25.002.415.007.166.004.292.01.377.019v1.534a4.484 4.484 0 0 0-.351-.057 3.463 3.463 0 0 0-.569-.045c-.477 0-.903.1-1.278.3-.371.196-.665.469-.883.818-.213.346-.32.74-.32 1.183V23H87.81Zm6.698 0v-9.818h1.508V23h-1.508Zm.767-11.454c-.294 0-.548-.1-.761-.301a.965.965 0 0 1-.313-.722c0-.281.104-.522.313-.723.213-.2.467-.3.76-.3.295 0 .546.1.755.3.213.2.32.441.32.723a.956.956 0 0 1-.32.722c-.209.2-.46.3-.754.3Zm7.212 11.659c-.819 0-1.541-.207-2.167-.62-.627-.418-1.117-1.006-1.47-1.765-.354-.762-.531-1.664-.531-2.704 0-1.03.177-1.926.53-2.684.354-.759.846-1.345 1.477-1.758.631-.413 1.359-.62 2.186-.62.639 0 1.144.107 1.515.32.375.208.661.447.857.715.2.265.355.482.466.652h.128V9.91h1.509V23h-1.458v-1.509h-.179a9.578 9.578 0 0 1-.473.678c-.204.268-.496.51-.876.722-.379.21-.884.314-1.514.314Zm.204-1.356c.605 0 1.117-.157 1.534-.473.418-.32.735-.76.953-1.323.217-.567.326-1.22.326-1.962 0-.733-.107-1.374-.32-1.924-.213-.554-.528-.985-.946-1.291-.418-.311-.933-.467-1.547-.467-.639 0-1.172.164-1.598.492-.422.324-.739.765-.952 1.323-.21.554-.314 1.177-.314 1.867 0 .699.107 1.334.32 1.905.217.567.537 1.018.959 1.355.426.332.954.498 1.585.498Zm11.231 5.037c-.729 0-1.355-.093-1.879-.28-.525-.184-.961-.427-1.311-.73a3.975 3.975 0 0 1-.824-.958l1.201-.844c.137.179.309.383.518.613.209.235.494.437.857.608.366.174.846.262 1.438.262.792 0 1.447-.192 1.962-.575.516-.384.774-.985.774-1.803v-1.994h-.128c-.111.179-.269.4-.473.664-.2.26-.49.493-.869.697-.376.2-.883.3-1.522.3-.792 0-1.504-.187-2.135-.562-.626-.375-1.123-.92-1.489-1.636-.362-.716-.543-1.585-.543-2.608 0-1.006.176-1.882.53-2.627.354-.75.846-1.33 1.477-1.739.63-.413 1.359-.62 2.186-.62.639 0 1.146.107 1.521.32.379.208.669.447.869.715.205.265.363.482.473.652h.154v-1.56h1.457v10.1c0 .844-.192 1.53-.575 2.059a3.276 3.276 0 0 1-1.534 1.17c-.639.25-1.351.376-2.135.376Zm-.051-5.395c.605 0 1.116-.138 1.534-.415.417-.277.735-.675.952-1.195.218-.52.326-1.142.326-1.867 0-.707-.106-1.331-.319-1.873-.213-.54-.529-.965-.946-1.272-.418-.306-.934-.46-1.547-.46-.639 0-1.172.162-1.598.486-.422.324-.74.758-.953 1.304a5.058 5.058 0 0 0-.313 1.815c0 .682.107 1.285.32 1.81.217.519.537.928.959 1.226.426.294.954.441 1.585.441Zm11.173 1.713c-.946 0-1.762-.208-2.448-.626a4.205 4.205 0 0 1-1.579-1.764c-.366-.759-.55-1.64-.55-2.646s.184-1.892.55-2.66c.371-.77.886-1.372 1.547-1.802.665-.435 1.44-.652 2.327-.652.511 0 1.016.085 1.515.256.498.17.952.447 1.361.83.409.38.735.883.978 1.51.243.626.364 1.397.364 2.313v.64h-7.568v-1.305h6.034c0-.554-.111-1.048-.332-1.483a2.508 2.508 0 0 0-.933-1.029c-.401-.251-.874-.377-1.419-.377-.601 0-1.121.15-1.56.447a2.947 2.947 0 0 0-1.004 1.151c-.234.473-.351.98-.351 1.521v.87c0 .741.128 1.37.383 1.885.26.512.62.902 1.081 1.17.46.264.995.396 1.604.396.396 0 .754-.055 1.074-.166.324-.115.603-.285.837-.511.235-.23.416-.516.544-.857l1.457.41a3.228 3.228 0 0 1-.773 1.303c-.363.371-.81.66-1.343.87-.532.204-1.131.306-1.796.306ZM136.671 23V9.91h4.423c1.027 0 1.867.184 2.519.555.656.367 1.142.863 1.457 1.49.316.626.473 1.325.473 2.096 0 .771-.157 1.472-.473 2.103-.311.63-.792 1.134-1.444 1.509-.652.37-1.488.556-2.506.556h-3.17v-1.407h3.119c.703 0 1.268-.12 1.694-.364.426-.243.735-.57.927-.984.196-.418.294-.889.294-1.413s-.098-.993-.294-1.406a2.098 2.098 0 0 0-.934-.972c-.43-.238-1.001-.358-1.713-.358h-2.787V23h-1.585Zm11.221 0v-9.818h1.458v1.483h.102c.179-.486.503-.88.972-1.183a2.858 2.858 0 0 1 1.585-.454c.111 0 .249.002.415.007.167.004.292.01.377.019v1.534a4.45 4.45 0 0 0-.351-.057 3.467 3.467 0 0 0-.569-.045c-.477 0-.903.1-1.278.3a2.197 2.197 0 0 0-1.202 2V23h-1.509Zm10.387.204c-.886 0-1.664-.21-2.333-.632-.664-.422-1.184-1.012-1.559-1.77-.371-.76-.556-1.646-.556-2.66 0-1.023.185-1.915.556-2.678.375-.763.895-1.355 1.559-1.777.669-.422 1.447-.633 2.333-.633.887 0 1.662.21 2.327.633.669.422 1.189 1.014 1.56 1.777.375.763.562 1.655.562 2.678 0 1.014-.187 1.9-.562 2.66-.371.758-.891 1.348-1.56 1.77-.665.422-1.44.633-2.327.633Zm0-1.355c.674 0 1.228-.172 1.662-.517.435-.346.757-.8.966-1.362a5.231 5.231 0 0 0 .313-1.828c0-.656-.105-1.268-.313-1.834a3.093 3.093 0 0 0-.966-1.375c-.434-.35-.988-.524-1.662-.524-.673 0-1.227.175-1.661.524-.435.35-.757.808-.966 1.375a5.285 5.285 0 0 0-.313 1.834c0 .656.105 1.266.313 1.828.209.563.531 1.017.966 1.362.434.345.988.517 1.661.517Zm6.752-8.667h1.509v10.534c0 .605-.105 1.13-.314 1.572a2.25 2.25 0 0 1-.933 1.03c-.413.242-.935.364-1.566.364h-.307v-1.406h.282c.46 0 .796-.137 1.009-.41.214-.268.32-.651.32-1.15V13.182Zm.742-1.636c-.294 0-.548-.1-.761-.301a.964.964 0 0 1-.313-.722c0-.281.104-.522.313-.723.213-.2.467-.3.761-.3s.545.1.754.3c.213.2.319.441.319.723a.956.956 0 0 1-.319.722c-.209.2-.46.3-.754.3Zm7.646 11.659c-.946 0-1.762-.21-2.448-.627a4.205 4.205 0 0 1-1.579-1.764c-.366-.759-.55-1.64-.55-2.646s.184-1.892.55-2.66c.371-.77.886-1.372 1.547-1.802.665-.435 1.44-.652 2.327-.652.511 0 1.016.085 1.515.256.498.17.952.447 1.361.83.409.38.735.883.978 1.51.243.626.364 1.397.364 2.313v.64h-7.568v-1.305h6.034c0-.554-.111-1.048-.332-1.483a2.508 2.508 0 0 0-.933-1.029c-.401-.251-.874-.377-1.419-.377-.601 0-1.121.15-1.56.447a2.947 2.947 0 0 0-1.004 1.151c-.234.473-.351.98-.351 1.521v.87c0 .741.128 1.37.383 1.885.26.512.62.902 1.081 1.17.46.264.995.396 1.604.396.396 0 .754-.055 1.074-.166.324-.115.603-.285.837-.511.235-.23.416-.516.544-.857l1.457.41a3.228 3.228 0 0 1-.773 1.303c-.363.371-.81.66-1.343.87-.532.204-1.131.306-1.796.306Zm10.349 0c-.921 0-1.713-.218-2.378-.652-.665-.435-1.176-1.034-1.534-1.797-.358-.762-.537-1.634-.537-2.614 0-.997.183-1.877.55-2.64.37-.767.886-1.366 1.546-1.796.665-.435 1.441-.652 2.327-.652.691 0 1.313.128 1.867.383a3.574 3.574 0 0 1 1.361 1.074c.354.46.573.998.659 1.611h-1.509c-.115-.447-.371-.844-.767-1.189-.392-.35-.92-.524-1.585-.524-.588 0-1.104.153-1.547.46-.439.303-.782.731-1.029 1.285-.243.55-.365 1.195-.365 1.937 0 .758.12 1.419.358 1.981.243.563.584 1 1.023 1.31.443.312.963.467 1.56.467a2.69 2.69 0 0 0 1.067-.204c.32-.136.59-.332.812-.588.222-.256.379-.563.473-.92h1.509a3.511 3.511 0 0 1-.633 1.565c-.333.46-.774.827-1.323 1.1-.546.268-1.181.402-1.905.402Zm10.336-10.023v1.278h-5.088v-1.278h5.088Zm-3.605-2.353h1.508v9.358c0 .427.062.746.185.96.128.208.29.349.486.421.201.068.411.102.633.102.166 0 .303-.008.409-.025l.256-.051.307 1.355a3.085 3.085 0 0 1-.429.115 3.147 3.147 0 0 1-.696.064c-.426 0-.844-.092-1.253-.275a2.485 2.485 0 0 1-1.01-.837c-.264-.375-.396-.848-.396-1.42V10.83Z" fill="#1A365D"/></svg>