<svg version="1.1" id="Layer_1" xmlns="http://www.w3.org/2000/svg" xmlns:xlink="http://www.w3.org/1999/xlink" x="0px" y="0px" viewBox="0 0 500 500" style="width: 181px;" xml:space="preserve" data-imageid="team-meeting-75" imageName="Team Meeting" class="illustrations_image">
<style type="text/css">
	.st0_team-meeting-75{fill:#231F20;}
	.st1_team-meeting-75{fill:#FFFFFF;}
	.st2_team-meeting-75{fill:#68E1FD;}
	.st3_team-meeting-75{fill:#D1D3D4;}
</style>
<g id="Chair_1_team-meeting-75">
	<path class="st0_team-meeting-75" d="M312.7,249.5v-99.8c0-8.8-7.2-16-16-16c-0.2,0-0.3,0-0.5,0l-87.5,2.6c-8.8,0.3-15.8,7.7-15.5,16.5&#10;&#9;&#9;c0,0.3,0,0.5,0,0.8l8.6,103.8L312.7,249.5z"/>
	<path class="st0_team-meeting-75" d="M201.9,258.1c-0.4,0-0.7-0.3-0.7-0.6l-8.7-103.8c-0.8-9.2,6.1-17.3,15.2-18c0.3,0,0.6,0,0.9-0.1l87.5-2.6&#10;&#9;&#9;c9.2-0.3,16.9,7,17.2,16.2c0,0.2,0,0.3,0,0.5v99.9c0,0.4-0.3,0.7-0.6,0.7L201.9,258.1L201.9,258.1z M296.7,134.4h-0.5l-87.5,2.6&#10;&#9;&#9;c-8.4,0.3-15.1,7.4-14.8,15.8c0,0.3,0,0.5,0,0.8l8.6,103.1l109.4-7.8v-99.2C312,141.2,305.2,134.4,296.7,134.4L296.7,134.4z&#10;&#9;&#9; M312.7,249.5L312.7,249.5z"/>
</g>
<g id="Characer_Female_1_team-meeting-75">
	<path class="st1_team-meeting-75" d="M279.3,97.7c-13.1-18.4-41-14.3-54.1,2.3c-6.9,8.7-9.9,20.3-18.2,27.7c-4.4,3.9-10,6.3-15.2,9.1&#10;&#9;&#9;s-10.4,6.4-13,11.7s-1.8,12.7,3.2,15.9c4.4,2.8,10.4,1.6,14.9,4.4c-5.6,0.8-9.3,7.8-6.8,12.9c2.2,4.3,7.3,6.1,12,7.2&#10;&#9;&#9;c16.5,4.1,34.1,5.7,50.4,0.8c12.2-3.6,24.6-11.7,31.4-22.7c6.5-10.4,4.1-30.1,3.2-42c-0.7-8.7-2-17.6-6.5-25.1&#10;&#9;&#9;C280.3,99.2,279.8,98.4,279.3,97.7z"/>
	<path class="st0_team-meeting-75" d="M230.8,193.4c-9.7-0.1-19.4-1.4-28.8-3.8c-4.9-1.2-10.1-3.1-12.4-7.6c-1.3-2.8-1.2-6,0.3-8.7&#10;&#9;&#9;c1.1-2.1,2.9-3.8,5.1-4.7c-1.8-0.6-3.6-1-5.5-1.2c-2.7-0.4-5.4-0.8-7.8-2.3c-5.5-3.5-6.1-11.4-3.4-16.8c2.9-5.8,8.6-9.5,13.3-12&#10;&#9;&#9;c1.2-0.6,2.4-1.2,3.6-1.9c4-2.1,8.1-4.2,11.5-7.2c4.7-4.2,7.8-10,10.7-15.6c2.1-4.2,4.5-8.3,7.4-12.1c7.6-9.4,19.2-14.8,31.3-14.6&#10;&#9;&#9;c10,0.2,18.5,4.6,24,12.3c0.5,0.7,1,1.5,1.5,2.3c4.7,8,6,17.3,6.6,25.4c0.1,1.1,0.2,2.3,0.3,3.5c1,12.3,2.4,29.2-3.6,38.9&#10;&#9;&#9;c-6.5,10.4-18.4,19-31.8,23C245.6,192.5,238.2,193.5,230.8,193.4z M255,86.3c-11.4,0.1-22.1,5.2-29.3,14.1&#10;&#9;&#9;c-2.8,3.7-5.2,7.7-7.2,11.8c-3,5.7-6.1,11.6-11,15.9c-3.5,3.1-7.7,5.3-11.8,7.4c-1.2,0.6-2.4,1.2-3.6,1.9&#10;&#9;&#9;c-4.5,2.4-10,5.9-12.7,11.4c-2.4,4.8-1.9,11.9,2.9,15c2.1,1.3,4.6,1.7,7.3,2.1s5.3,0.8,7.6,2.2c0.3,0.2,0.4,0.6,0.2,0.9&#10;&#9;&#9;c-0.1,0.2-0.3,0.3-0.5,0.3c-4.7,1-7.7,5.5-6.7,10.2c0.1,0.6,0.3,1.1,0.5,1.6c2,4,7,5.7,11.5,6.9c19.1,4.8,35.9,5,50,0.8&#10;&#9;&#9;c13.2-3.9,24.8-12.3,31.1-22.4c5.8-9.3,4.4-25.9,3.4-38.1c-0.1-1.2-0.2-2.4-0.3-3.5c-0.6-7.9-1.8-17.1-6.4-24.8&#10;&#9;&#9;c-0.4-0.8-0.9-1.5-1.4-2.2l0,0c-5.2-7.3-13.4-11.5-22.9-11.8L255,86.3z"/>
	<path class="st2_team-meeting-75 targetColor" d="M296.5,151.4c-0.3-2.1-53.6-11.3-80.3,1.5c-9.6,36.6-4.3,108.4-4.3,108.4l95.1-0.7&#10;&#9;&#9;C307,260.5,307.9,221,296.5,151.4z" style="fill: rgb(104, 225, 253);"/>
	<path class="st0_team-meeting-75" d="M237.7,153.7c0,0-1.7,105.8-1.7,106.5s28.6,0,29.4-1.2s0-92.1,0-92.1l-23.6-5.1"/>
	<path class="st0_team-meeting-75" d="M241.5,261.2c-1.8,0.1-3.7,0-5.5-0.2c-0.4-0.1-0.7-0.4-0.6-0.8c0-0.7,1.7-105.5,1.7-106.5&#10;&#9;&#9;c0-0.4,0.3-0.7,0.7-0.7c0,0,0,0,0,0c0.4,0,0.7,0.3,0.7,0.7c0,0,0,0,0,0c0,1-1.5,97.9-1.7,106c3.5,0.4,25.5-0.2,28.1-1.2&#10;&#9;&#9;c0.5-3.6,0.1-66.3-0.1-91.1l-23.1-5c-0.4-0.1-0.6-0.5-0.4-0.9c0.1-0.3,0.4-0.5,0.7-0.5l23.6,5.1c0.3,0.1,0.5,0.4,0.5,0.7&#10;&#9;&#9;c0.2,27.4,0.6,91.2-0.1,92.5c-0.2,0.4-0.7,1.2-14.6,1.7C248,261.2,244.4,261.2,241.5,261.2z"/>
	<path class="st1_team-meeting-75" d="M264.6,152.1l0.7,17.4c0,0-1.9,8-13.7,5.8s-13.9-10.1-13.9-10.1l-0.1-32.5c0,0,17.7-10.6,14.3-29.1&#10;&#9;&#9;c0,0,7.8,14.4,24.9,11.3c0,0,1,16.7,0.1,25.7S264.6,152.1,264.6,152.1z"/>
	<path class="st0_team-meeting-75" d="M255.5,176.4c-1.3,0-2.7-0.1-4-0.4c-12-2.3-14.3-10.3-14.4-10.7c0-0.1,0-0.1,0-0.2l-0.1-32.5&#10;&#9;&#9;c0-0.2,0.1-0.5,0.3-0.6c0.2-0.1,17.3-10.5,14-28.4c-0.1-0.3,0.1-0.7,0.5-0.8c0.3-0.1,0.7,0,0.8,0.3c0.3,0.6,7.8,13.9,24.2,11&#10;&#9;&#9;c0.2,0,0.4,0,0.6,0.1c0.2,0.1,0.2,0.3,0.3,0.5c0,0.2,1,16.8,0.1,25.9c-0.9,8.4-9.9,11.3-12.3,12l0.7,16.8c0,0.1,0,0.1,0,0.2&#10;&#9;&#9;C266,169.7,264.3,176.4,255.5,176.4z M238.5,165c0.3,0.9,2.6,7.5,13.3,9.6c10.3,2,12.6-4.4,12.9-5.2l-0.7-17.3&#10;&#9;&#9;c0-0.3,0.2-0.6,0.6-0.7c0.1,0,10.9-2.4,11.8-10.9c0.8-7.8,0.2-21.5,0-24.8c-8.9,1.4-17.8-2.2-23.3-9.4&#10;&#9;&#9;c1.2,15.7-12.3,25.2-14.6,26.7L238.5,165z"/>
	<path class="st1_team-meeting-75" d="M243.1,131.5c-0.5-1.6-1.4-3-2.8-3.9c-1.3-0.8-2.7-1.5-4.2-1.8c-0.8-0.3-1.6-0.4-2.5-0.3&#10;&#9;&#9;c-0.6,0.1-1.1,0.4-1.6,0.7c-1.2,0.7-2.2,1.8-2.7,3.1c-0.3,1.1-0.3,2.2,0,3.3c0.2,1.2,0.6,2.4,1.1,3.5c2.2,4.6,7.7,6.5,12.3,4.3&#10;&#9;&#9;c0,0,0.1,0,0.1-0.1"/>
	<path class="st0_team-meeting-75" d="M238.8,141.8c-1.1,0-2.1-0.2-3.2-0.5c-2.5-0.8-4.6-2.6-5.7-5c-0.5-1.2-0.9-2.4-1.1-3.7c-0.3-1.2-0.3-2.5,0-3.7&#10;&#9;&#9;c0.5-1.5,1.6-2.7,3-3.5c0.6-0.4,1.2-0.6,1.9-0.8c0.9-0.1,1.9,0,2.8,0.3c1.6,0.4,3.1,1.1,4.4,2c1.4,1.1,2.5,2.6,3,4.3&#10;&#9;&#9;c0.1,0.4-0.1,0.8-0.5,0.9c-0.4,0.1-0.8-0.1-0.9-0.5c0,0,0,0,0,0c-0.4-1.4-1.3-2.7-2.5-3.6c-1.2-0.8-2.6-1.4-4-1.7&#10;&#9;&#9;c-0.7-0.3-1.4-0.4-2.1-0.3c-0.5,0.1-1,0.3-1.4,0.6c-1.1,0.6-1.9,1.5-2.4,2.7c-0.2,1-0.2,2,0,3c0.2,1.1,0.5,2.3,1,3.3&#10;&#9;&#9;c2,4.2,7.1,6,11.3,4c0,0,0.1,0,0.1-0.1c0.3-0.2,0.8,0,0.9,0.3c0.2,0.3,0,0.8-0.3,0.9c0,0,0,0,0,0&#10;&#9;&#9;C241.8,141.5,240.3,141.8,238.8,141.8z"/>
	<path class="st1_team-meeting-75" d="M265.3,124.9c0,0,6.8,8.6,5.5,10.2s-5.4,1-5.4,1"/>
	<path class="st0_team-meeting-75" d="M267.2,137c-0.7,0-1.3-0.1-2-0.2c-0.4-0.1-0.6-0.4-0.5-0.8c0.1-0.4,0.4-0.6,0.8-0.6c1,0.2,3.9,0.4,4.8-0.7&#10;&#9;&#9;c0.4-0.8-2.1-5.2-5.5-9.4c-0.2-0.3-0.2-0.8,0.1-1c0,0,0,0,0,0c0.3-0.2,0.7-0.2,1,0.1c0,0,0,0,0,0c2.2,2.7,7,9.2,5.5,11.1&#10;&#9;&#9;C270.4,136.7,268.6,137,267.2,137z"/>
	
		<ellipse transform="matrix(4.117813e-02 -0.9992 0.9992 4.117813e-02 126.64 374.8685)" class="st0_team-meeting-75" cx="258.6" cy="121.5" rx="2.1" ry="1.5"/>
	
		<ellipse transform="matrix(0.1513 -0.9885 0.9885 0.1513 109.083 369.3366)" class="st0_team-meeting-75" cx="269.6" cy="121.1" rx="2.1" ry="1.5"/>
	<path class="st1_team-meeting-75" d="M270.7,139.9c0,0-14.8,9-17.4-4.8"/>
	<path class="st0_team-meeting-75" d="M261.4,143.4c-1.3,0-2.6-0.2-3.7-0.7c-2.6-1.2-4.3-3.7-5.1-7.5c-0.1-0.4,0.2-0.7,0.5-0.8c0,0,0,0,0,0&#10;&#9;&#9;c0.4-0.1,0.7,0.2,0.8,0.6c0.6,3.3,2.1,5.5,4.3,6.5c4.9,2.2,12-2.1,12.1-2.1c0.3-0.2,0.8-0.1,1,0.2c0,0,0,0,0,0&#10;&#9;&#9;c0.2,0.3,0.1,0.8-0.2,1c0,0,0,0,0,0C270.9,140.6,266.1,143.4,261.4,143.4z"/>
	<path class="st0_team-meeting-75" d="M264.6,152.1c0,0-9,0.2-13.3-2.2c0,0,3.7,10.3,13.5,12.7L264.6,152.1z"/>
	<path class="st0_team-meeting-75" d="M264.9,163.3c-0.1,0-0.1,0-0.2,0c-10.1-2.5-13.9-12.7-14-13.1c-0.1-0.4,0.1-0.8,0.4-0.9c0.2-0.1,0.4,0,0.6,0&#10;&#9;&#9;c4,2.3,12.8,2.1,12.9,2.1c0.4,0,0.7,0.3,0.7,0.7l0.2,10.5C265.6,163,265.3,163.3,264.9,163.3C264.9,163.3,264.9,163.3,264.9,163.3&#10;&#9;&#9;L264.9,163.3z M252.7,151.3c1.4,2.8,5,8.4,11.4,10.4l-0.2-8.8C262,152.8,256.6,152.6,252.7,151.3L252.7,151.3z"/>
	<path class="st1_team-meeting-75" d="M383.1,160.1c-2.6-2.3-19.5,8.5-19.5,8.5c0.7-6.7,1.6-11.8,0-12s-8.2,17.9-8.2,17.9s-21.7,31.7-23.5,32.6&#10;&#9;&#9;s-35.4-55.7-35.4-55.7c-19.1,20.9-4.8,50.2-4.8,50.2s35.4,44.6,42.9,44.2c6-0.4,26-36.2,33.5-49.9l0,0c0,0,5.2-8.4,7.3-11.5&#10;&#9;&#9;s9-9.6,12-13.3S385.7,162.5,383.1,160.1z"/>
	<path class="st0_team-meeting-75" d="M334.5,246.4c-7.8,0-39.6-39.9-43.3-44.4c-0.2-0.4-14.4-30.1,4.8-51c0.1-0.1,0.3-0.2,0.5-0.2&#10;&#9;&#9;c0.2,0,0.4,0.1,0.5,0.3c12.5,21.1,31.8,52.5,34.8,55.3c2.2-2.2,14.7-20.1,23-32.1c6.7-18.4,8.3-18.3,8.8-18.2&#10;&#9;&#9;c0.4,0,0.7,0.2,0.9,0.5c0.9,1.1,0.6,3.8,0,9.3c-0.1,0.5-0.1,1-0.2,1.6c5-3.1,16.6-10,19.2-7.7l0,0c5.2,4.7,6.8,8.9,4.3,11.8&#10;&#9;&#9;c-1.3,1.5-3.2,3.5-5.2,5.7c-2.4,2.4-4.7,4.9-6.8,7.6c-2.1,3-7.2,11.4-7.2,11.5c-10.1,18.6-28,49.8-34,50.2L334.5,246.4z&#10;&#9;&#9; M296.4,152.5c-17.7,20.2-4.3,48.5-4.1,48.8c14,17.6,36.8,43.8,42.2,43.8h0.1c3.9-0.2,16.5-19.2,33-49.6c0.1-0.1,5.2-8.5,7.3-11.6&#10;&#9;&#9;c2.1-2.7,4.4-5.3,6.9-7.7c2-2.1,3.9-4.1,5.2-5.6c2.6-3.2-1.5-7.6-4.2-10.1c-1.4-1.2-10.8,3.5-18.8,8.5c-0.3,0.2-0.7,0.1-0.9-0.2&#10;&#9;&#9;c-0.1-0.1-0.1-0.3-0.1-0.5c0.1-1,0.2-2,0.3-2.9c0.4-3.3,0.9-7.7,0.3-8.3c-1.2,1.1-4.7,9.6-7.6,17.4c0,0,0,0.1-0.1,0.1&#10;&#9;&#9;c-3.6,5.3-21.9,31.9-23.7,32.8c-0.8,0.4-1.6,0.8-19.2-27.8C305.6,167.9,298.2,155.6,296.4,152.5z"/>
	<path class="st0_team-meeting-75" d="M367.8,179.3c-0.1,0-0.2,0-0.2,0c-0.3-0.1-0.5-0.5-0.4-0.8c0,0,0,0,0,0c2.1-5.3-3.7-9.1-4-9.3&#10;&#9;&#9;c-0.3-0.2-0.4-0.6-0.2-0.9c0.2-0.3,0.6-0.4,0.9-0.2l0,0c0.1,0.1,7,4.6,4.5,10.8C368.3,179.2,368,179.3,367.8,179.3z"/>
</g>
<g id="Desk_team-meeting-75">
	<rect x="135.9" y="235.4" class="st1_team-meeting-75" width="228.3" height="179"/>
	<path class="st0_team-meeting-75" d="M364.1,415H135.9c-0.4,0-0.6-0.3-0.6-0.6l0,0V235.4c0-0.4,0.3-0.6,0.6-0.6h228.3c0.4,0,0.6,0.3,0.6,0.6v0v179&#10;&#9;&#9;C364.7,414.8,364.5,415,364.1,415z M136.5,413.7h227V236.1h-227L136.5,413.7z"/>
</g>
<path id="paper_team-meeting-75" class="st3_team-meeting-75" d="M242.1,367L242.1,367l-73-2.9c-0.4,0-0.7-0.3-0.7-0.7l2-49.9c0-0.2,0.1-0.4,0.2-0.5&#10;&#9;c0.1-0.1,0.3-0.2,0.5-0.2l73,2.9c0.4,0,0.7,0.3,0.7,0.7l-2,49.9c0,0.2-0.1,0.4-0.2,0.5C242.5,366.9,242.3,367,242.1,367z&#10;&#9; M169.8,362.7l71.6,2.9l1.9-48.6l-71.6-2.9L169.8,362.7z"/>
<g id="Book_1_team-meeting-75">
	<path class="st3_team-meeting-75" d="M252.9,302.2L252.9,302.2l-49.7-1.2c-0.4,0-0.7-0.3-0.7-0.7c0,0,0,0,0,0l1.1-48.1c0-0.4,0.3-0.7,0.7-0.7&#10;&#9;&#9;c0,0,0,0,0,0l49.7,1.2c0.4,0,0.7,0.3,0.7,0.7c0,0,0,0,0,0l-1.1,48C253.6,301.9,253.3,302.2,252.9,302.2&#10;&#9;&#9;C252.9,302.2,252.9,302.2,252.9,302.2L252.9,302.2z M203.9,299.7l48.3,1.2l1.1-46.6L205,253L203.9,299.7z"/>
	<path class="st3_team-meeting-75" d="M302.3,303.4L302.3,303.4l-49.7-1.2c-0.4,0-0.7-0.3-0.7-0.7c0,0,0,0,0,0l1.1-48c0-0.2,0.1-0.4,0.2-0.5&#10;&#9;&#9;c0.1-0.1,0.3-0.2,0.5-0.2l49.7,1.2c0.2,0,0.4,0.1,0.5,0.2c0.1,0.1,0.2,0.3,0.2,0.5l-1.1,48C303,303.1,302.7,303.4,302.3,303.4&#10;&#9;&#9;C302.3,303.4,302.3,303.4,302.3,303.4z M253.3,300.9l48.3,1.1l1.1-46.6l-48.3-1.2L253.3,300.9z"/>
	<path class="st3_team-meeting-75" d="M244.8,293.8L244.8,293.8l-29.4-0.7c-0.4,0-0.7-0.3-0.7-0.7c0-0.4,0.3-0.7,0.7-0.7l29.4,0.7&#10;&#9;&#9;c0.4,0,0.7,0.3,0.7,0.7C245.5,293.5,245.2,293.8,244.8,293.8L244.8,293.8z"/>
	<path class="st3_team-meeting-75" d="M245,285.7L245,285.7l-29.4-0.7c-0.4,0-0.7-0.3-0.7-0.7c0,0,0,0,0,0c0-0.4,0.3-0.7,0.7-0.7c0,0,0,0,0,0&#10;&#9;&#9;l29.4,0.7c0.4,0,0.7,0.3,0.7,0.7C245.7,285.4,245.4,285.7,245,285.7L245,285.7z"/>
	<path class="st3_team-meeting-75" d="M245.2,277.6L245.2,277.6l-29.4-0.7c-0.4,0-0.7-0.3-0.7-0.7c0,0,0,0,0,0c0-0.4,0.3-0.7,0.7-0.7l29.4,0.7&#10;&#9;&#9;c0.4,0,0.7,0.3,0.7,0.7C245.9,277.2,245.6,277.6,245.2,277.6L245.2,277.6z"/>
	<path class="st3_team-meeting-75" d="M245.4,269.4L245.4,269.4l-29.4-0.7c-0.4,0-0.7-0.3-0.7-0.7c0,0,0,0,0,0c0-0.4,0.3-0.7,0.7-0.7l29.4,0.7&#10;&#9;&#9;c0.4,0,0.7,0.3,0.7,0.7C246.1,269.1,245.8,269.4,245.4,269.4L245.4,269.4z"/>
	<path class="st3_team-meeting-75" d="M245.6,261.3L245.6,261.3l-29.4-0.7c-0.4,0-0.7-0.3-0.7-0.7c0,0,0,0,0,0c0-0.4,0.3-0.7,0.7-0.7l29.4,0.7&#10;&#9;&#9;c0.4,0,0.7,0.3,0.7,0.7C246.3,261,246,261.3,245.6,261.3L245.6,261.3z"/>
	<path class="st3_team-meeting-75" d="M292.3,270.6L292.3,270.6l-29.4-0.7c-0.4,0-0.7-0.3-0.7-0.7s0.3-0.7,0.7-0.7c0,0,0,0,0,0l29.4,0.7&#10;&#9;&#9;c0.4,0,0.7,0.3,0.7,0.7C293,270.2,292.7,270.6,292.3,270.6z"/>
	<path class="st3_team-meeting-75" d="M292.5,262.4L292.5,262.4l-29.4-0.7c-0.4,0-0.7-0.3-0.7-0.7c0,0,0,0,0,0c0-0.4,0.3-0.7,0.7-0.7c0,0,0,0,0,0&#10;&#9;&#9;l29.4,0.7c0.4,0,0.7,0.3,0.7,0.7C293.2,262.1,292.9,262.4,292.5,262.4L292.5,262.4z"/>
	<path class="st3_team-meeting-75" d="M291.7,296.9L291.7,296.9l-30.2-0.7c-0.4,0-0.7-0.3-0.7-0.7c0,0,0,0,0,0l0.5-19c0-0.2,0.1-0.4,0.2-0.5&#10;&#9;&#9;c0.1-0.1,0.3-0.2,0.5-0.2l30.2,0.7c0.4,0,0.7,0.3,0.7,0.7c0,0,0,0,0,0l-0.5,19c0,0.2-0.1,0.4-0.2,0.5&#10;&#9;&#9;C292.1,296.8,291.9,296.9,291.7,296.9z M262.2,294.8l28.8,0.7l0.4-17.6l-28.8-0.7L262.2,294.8z"/>
</g>
<g id="Characer_Female_right_hand_team-meeting-75">
	<path class="st1_team-meeting-75" d="M217.2,153.5c0,0-39.2,46.9-44.2,62.7s32.1,65.3,32.1,65.3s12.1,15.7,17.9,12.4s0-20.7,0-20.7s10.2,5.8,8,1&#10;&#9;&#9;s-15.6-8.6-15.6-8.6L198.8,216l13.4-16.7"/>
	<path class="st0_team-meeting-75" d="M221.1,294.9c-6.3,0-15.4-11.6-16.6-13.1c-1.5-2-37.2-49.9-32.2-65.8c5-15.7,42.6-61,44.2-62.9&#10;&#9;&#9;c0.2-0.3,0.6-0.3,0.9-0.1c0.3,0.2,0.3,0.6,0.1,0.9c-0.4,0.5-39.1,47-44,62.4c-4.8,15.3,31.6,64.2,32,64.7&#10;&#9;&#9;c3.3,4.2,12.7,14.8,17,12.2s1.3-15.2-0.3-19.9c-0.1-0.3,0-0.5,0.2-0.7c0.2-0.2,0.5-0.2,0.7-0.1c3.3,1.9,6.8,3.2,7.3,2.8l0,0&#10;&#9;&#9;c0-0.3-0.1-0.6-0.2-0.9c-1.7-3.7-11.6-7.2-15.2-8.3c-0.2-0.1-0.4-0.2-0.4-0.4l-16.5-49.5c-0.1-0.2,0-0.4,0.1-0.6l13.4-16.7&#10;&#9;&#9;c0.2-0.3,0.6-0.3,0.9-0.1c0.3,0.2,0.3,0.6,0.1,0.9l-13.1,16.4l16.3,48.9c2.1,0.6,13.6,4.3,15.7,8.9c0.5,1.1,0.5,1.9,0,2.4&#10;&#9;&#9;c-1.2,1.1-4.9-0.5-7.4-1.9c1.3,4.4,4.4,16.9-0.8,19.9C222.7,294.7,221.9,294.9,221.1,294.9z"/>
</g>
<g id="Characer_Male_team-meeting-75">
	<path class="st1_team-meeting-75" d="M145.2,193.8c0,0-1.7-11.5-10.9-14.4s-36.1-2.4-38.9,18.2s7.2,35.2,15.7,39.6l20.5-2.1L145.2,193.8z"/>
	<path class="st0_team-meeting-75" d="M111,237.9c-0.1,0-0.2,0-0.3-0.1c-7.8-4-19-18.5-16-40.3c0.7-6.2,4.3-11.7,9.7-15c9.5-6,23.6-5.8,30.1-3.8&#10;&#9;&#9;c9.6,3,11.4,14.5,11.4,15c0,0.1,0,0.2,0,0.3l-13.7,41.3c-0.1,0.3-0.3,0.5-0.6,0.5l-20.5,2.1L111,237.9z M124.3,178.8&#10;&#9;&#9;c-6.3,0-13.6,1.3-19.2,4.9c-5,3.1-8.3,8.2-9,14.1c-2.9,20.9,7.7,34.8,15.1,38.8l19.9-2l13.5-40.7c-0.2-1.4-2.3-11.1-10.4-13.7&#10;&#9;&#9;C130.9,179.2,127.6,178.8,124.3,178.8L124.3,178.8z"/>
	<path class="st1_team-meeting-75" d="M131.7,198.4l1.8,10.8c0,0-4.1-8.2-8-1.2s7.5,16.2,7.5,16.2l-2.4,10l-21.2,2.1l-2.8,21c0,0,31.4,4.6,30.9,3.8&#10;&#9;&#9;c-0.2-0.3,2.1-20.7,2.1-20.7s5.7,2.3,8.9-6.8s-3.3-39.7-3.3-39.7L131.7,198.4z"/>
	<path class="st0_team-meeting-75" d="M136.8,261.8c-2.3,0-9.2-0.7-30.3-3.8c-0.4,0-0.6-0.4-0.6-0.8c0,0,0,0,0,0l2.8-21.1c0-0.3,0.3-0.6,0.6-0.6&#10;&#9;&#9;l20.7-2.1l2.2-9.1c-2-1.7-11.2-10-7.3-16.9c1.2-2.2,2.7-3.2,4.2-3.2c1.3,0.1,2.4,0.8,3.2,1.8l-1.3-7.7c0-0.3,0.1-0.7,0.5-0.8&#10;&#9;&#9;l13.5-4.5c0.2-0.1,0.4,0,0.6,0.1c0.2,0.1,0.3,0.3,0.3,0.5c0.3,1.3,6.5,30.9,3.2,40.1c-1.2,3.6-3,5.9-5.3,7&#10;&#9;&#9;c-1.1,0.5-2.4,0.7-3.6,0.5c-0.9,7.7-2.1,18.7-2,19.8c0,0.2,0,0.4-0.1,0.5C138,261.7,137.9,261.8,136.8,261.8z M107.4,256.7&#10;&#9;&#9;c10.4,1.5,26.4,3.7,29.4,3.8c0.1-1.7,0.5-6.3,2.1-20.2c0-0.2,0.2-0.4,0.3-0.5c0.2-0.1,0.4-0.1,0.6-0.1c1.1,0.4,2.4,0.3,3.4-0.3&#10;&#9;&#9;c1.9-0.9,3.5-3,4.6-6.1c2.8-8-2.2-33.8-3.1-38.6l-12.2,4.1l1.7,10.2c0.1,0.3-0.2,0.7-0.5,0.8c-0.3,0.1-0.7,0-0.8-0.4&#10;&#9;&#9;c-0.5-1-2.1-3.6-3.9-3.6c-1,0-2,0.8-2.9,2.5c-3.7,6.4,7.2,15.3,7.3,15.4c0.2,0.2,0.3,0.4,0.2,0.7l-2.4,10c-0.1,0.3-0.3,0.5-0.6,0.5&#10;&#9;&#9;l-20.6,2L107.4,256.7z"/>
	<path class="st1_team-meeting-75" d="M146.2,209.8c0,0,8,10.5,6.8,12s-5.3,1.6-5.3,1.6"/>
	<path class="st0_team-meeting-75" d="M147.7,224.2c-0.4,0-0.7-0.3-0.7-0.7c0-0.4,0.3-0.7,0.7-0.7c1.5,0,4.1-0.4,4.8-1.4c0.3-1-3.3-6.6-6.8-11.2&#10;&#9;&#9;c-0.2-0.3-0.2-0.8,0.1-1c0,0,0,0,0,0c0.3-0.2,0.7-0.2,1,0.1c0,0,0,0,0,0c3.8,5,8.1,11.2,6.8,12.9S148.2,224.2,147.7,224.2&#10;&#9;&#9;L147.7,224.2z"/>
	<ellipse transform="matrix(0.9705 -0.2412 0.2412 0.9705 -45.5246 40.0917)" class="st0_team-meeting-75" cx="141" cy="206" rx="1.1" ry="3"/>
	<path class="st0_team-meeting-75" d="M146.6,234c-0.2,0-0.4,0-0.6-0.1c-2.1-0.5-2.2-5-2.1-6.4c0-0.2,0.1-0.4,0.3-0.5c0.2-0.1,0.4-0.2,0.6-0.1&#10;&#9;&#9;l4.8,1.1c0.4,0.1,0.6,0.5,0.5,0.8c-0.1,0.4-0.5,0.6-0.8,0.5l0,0l-3.9-0.9c0.1,2,0.5,3.9,1.1,4.1c0.3,0.1,0.6,0.1,0.9-0.1&#10;&#9;&#9;c0.6-0.5,1-1.2,1.1-1.9c0.1-0.4,0.5-0.6,0.8-0.5s0.6,0.5,0.5,0.8c-0.2,1.1-0.9,2.1-1.8,2.8C147.5,233.9,147,234,146.6,234z"/>
	<path class="st1_team-meeting-75" d="M183.2,335.5c0,0,7.8,6.7,13.8,3.5s7.6-6.5,7.6-6.5s2,8.7,4.3,6.3c1.2-1.3,1.2-3.3-0.1-4.6&#10;&#9;&#9;c0,0-0.1-0.1-0.1-0.1c0,0,4.1,6.5,4.5,3s-2.4-7.2-2.4-7.2s12.1,8.9,11.5,3.5s-11.2-12.3-19.1-12.3s-22.9,4.3-22.9,4.3"/>
	<path class="st0_team-meeting-75" d="M193.4,340.6c-5.3,0-10.4-4.3-10.6-4.6c-0.3-0.2-0.3-0.7-0.1-1c0,0,0,0,0,0c0.2-0.3,0.7-0.3,1-0.1c0,0,0,0,0,0&#10;&#9;&#9;c0.1,0.1,7.5,6.3,13,3.5c5.6-3,7.3-6.2,7.3-6.2c0.1-0.3,0.4-0.4,0.7-0.4c0.3,0,0.5,0.3,0.6,0.5c0.7,2.8,1.9,6,2.8,6.2&#10;&#9;&#9;c0.1,0,0.2,0,0.3-0.2c0.7-0.6,0.9-1.6,0.6-2.5c-0.3-0.5-0.6-0.9-0.9-1.3c-0.2-0.3-0.1-0.7,0.1-0.9c0.3-0.2,0.7-0.2,0.9,0&#10;&#9;&#9;c0.4,0.4,0.8,0.9,1,1.5c0.6,0.9,1.3,1.7,2.2,2.3c0-0.1,0.1-0.3,0.1-0.4c0.3-3.2-2.2-6.7-2.3-6.8c-0.2-0.3-0.2-0.7,0.1-0.9&#10;&#9;&#9;c0.2-0.2,0.6-0.3,0.9-0.1c4,3,9,5.7,10.2,5c0.2-0.1,0.2-0.5,0.2-0.9c-0.5-5.1-10.9-11.6-18.4-11.6c-7.8,0-22.5,4.2-22.7,4.2&#10;&#9;&#9;c-0.4,0.1-0.8,0-0.9-0.4c-0.1-0.4,0-0.8,0.4-0.9c0,0,0.1,0,0.1,0c0.6-0.2,15.1-4.3,23.1-4.3c8.3,0,19.2,7.1,19.8,12.9&#10;&#9;&#9;c0.2,0.9-0.1,1.8-0.9,2.2c-1.8,1-6.2-1.4-9.2-3.4c0.8,1.6,1.1,3.3,1,5c-0.1,1-0.5,1.5-1.1,1.6s-1.6-0.4-2.4-1.3&#10;&#9;&#9;c-0.2,0.6-0.5,1.2-1,1.7c-0.4,0.5-1.1,0.8-1.7,0.6c-1.6-0.4-2.8-3.6-3.4-5.7c-1.9,2.3-4.3,4.1-7,5.5&#10;&#9;&#9;C196.1,340.3,194.8,340.6,193.4,340.6z"/>
	<path class="st2_team-meeting-75 targetColor" d="M135.9,390c0,0,0-26.8,1.6-56.4s12.8-41.4,3.3-70.4s-36.9-25.4-50.5-14.1c-27.7,22.9-53.2,93-38.7,142.7&#10;&#9;&#9;C51.6,391.8,83.2,405.2,135.9,390z" style="fill: rgb(104, 225, 253);"/>
	<path class="st2_team-meeting-75 targetColor" d="M107.2,270.8c0,1.5-15.2,73.6-5.2,80.3s83.7-8.5,83.7-8.5l-0.7-20.1l-43.5-4.8c0,0,12.3-54.6-9.3-69.1&#10;&#9;&#9;S107.2,270.8,107.2,270.8z" style="fill: rgb(104, 225, 253);"/>
	<path class="st0_team-meeting-75" d="M113.7,355.3c-8,0-15.9-1.8-19.1-7.9c-7.1-13.8,12.1-87,13-90.1c0.1-0.4,0.4-0.6,0.8-0.5&#10;&#9;&#9;c0.4,0.1,0.6,0.4,0.5,0.8c0,0,0,0.1,0,0.1c-0.2,0.8-19.9,75.8-13.1,89.1c6.7,13.1,38.7,4.2,39,4.1c0.4-0.1,0.8,0.1,0.9,0.5&#10;&#9;&#9;c0,0,0,0,0,0c0.1,0.4-0.1,0.8-0.5,0.9C128.3,354.1,121,355.1,113.7,355.3z"/>
	<path class="st0_team-meeting-75" d="M141.4,318.4L141.4,318.4c-1.8-0.1-11-0.6-11.8-3.9c-0.8-3,9.2-32.1,11.2-38c0.1-0.4,0.5-0.6,0.9-0.4&#10;&#9;&#9;c0,0,0,0,0,0c0.4,0.1,0.6,0.5,0.4,0.9c-4.6,13.3-11.6,35.1-11.1,37.2c0.4,1.7,6.4,2.7,10.5,2.8c0.4,0,0.7,0.3,0.7,0.7&#10;&#9;&#9;C142.1,318,141.8,318.3,141.4,318.4L141.4,318.4z"/>
</g>
<g id="Characer_Female_2_team-meeting-75">
	<path class="st1_team-meeting-75" d="M398.6,185.3c0,0-12.7,4.8-12,21.7s-3.5,35.1,11.1,33.8l0.9,9.9l30.8,3.3c0,0,3.2-51.6-2.6-60.1&#10;&#9;&#9;S398.6,185.3,398.6,185.3z"/>
	<path class="st0_team-meeting-75" d="M429.4,254.7L429.4,254.7l-30.9-3.3c-0.3,0-0.6-0.3-0.6-0.6l-0.8-9.2c-3.1,0.2-5.5-0.5-7.2-2.2&#10;&#9;&#9;c-4.2-3.9-4-12-3.9-21.5c0.1-3.6,0.1-7.2,0-10.8c-0.4-9,3-14.6,5.9-17.7c1.8-2,4-3.6,6.5-4.7c0.1,0,0.2,0,0.2,0&#10;&#9;&#9;c0.9,0,22.9,0.1,28.8,8.8s2.8,58.4,2.7,60.6c0,0.2-0.1,0.4-0.2,0.5C429.8,254.6,429.6,254.7,429.4,254.7z M399.2,250.1l29.5,3.1&#10;&#9;&#9;c0.4-6.3,2.7-51.3-2.5-59s-25.7-8.2-27.5-8.2c-1.3,0.5-12.1,5.5-11.4,20.9c0.2,3.6,0.1,7.3,0,10.9c-0.1,8.7-0.3,17,3.4,20.4&#10;&#9;&#9;c1.6,1.5,3.8,2.1,6.9,1.8c0.2,0,0.4,0,0.5,0.2c0.1,0.1,0.2,0.3,0.2,0.5L399.2,250.1z"/>
	<ellipse class="st1_team-meeting-75" cx="419.8" cy="207" rx="29.8" ry="32.7"/>
	<path class="st0_team-meeting-75" d="M419.8,240.4c-16.8,0-30.5-15-30.5-33.4s13.7-33.4,30.5-33.4s30.5,15,30.5,33.4S436.6,240.4,419.8,240.4z&#10;&#9;&#9; M419.8,175c-16,0-29.1,14.4-29.1,32s13,32,29.1,32s29.1-14.4,29.1-32S435.8,175,419.8,175L419.8,175z"/>
	<path class="st2_team-meeting-75 targetColor" d="M375.7,254.4c-14.8,5.2-62.9,81.7-54.5,95.4s43.6,5.8,43.6,5.8l-0.7,24.6l90.9-1.5c0,0,20.5-90,7-112.8&#10;&#9;&#9;C448.6,243.2,390.5,249.1,375.7,254.4z" style="fill: rgb(104, 225, 253);"/>
	<path class="st0_team-meeting-75" d="M364.8,356.2L364.8,356.2c-0.5,0-0.7-0.4-0.7-0.8c0,0,0,0,0,0c0.6-5.1,6.6-61.1,6.7-61.7&#10;&#9;&#9;c0-0.4,0.4-0.7,0.8-0.6c0,0,0,0,0,0c0.4,0,0.7,0.4,0.6,0.8c-0.1,0.6-6.1,56.6-6.7,61.7C365.4,355.9,365.1,356.2,364.8,356.2z"/>
	<path class="st1_team-meeting-75" d="M390.2,218.5c-0.6-2.6,0.2-5.3,2.1-7.2c0.5-0.5,1.2-0.9,1.9-1c0.9,0,1.7,0.4,2.2,1.2c0.5,0.7,0.8,1.5,0.9,2.4&#10;&#9;&#9;c0.6,2.3,0.6,4.7,0.2,7.1c-0.4,2.3-1.7,4.5-3.5,6"/>
	<path class="st0_team-meeting-75" d="M394,227.7c-0.2,0-0.4-0.1-0.5-0.3c-0.2-0.3-0.2-0.7,0.1-1c0,0,0,0,0,0c1.7-1.4,2.8-3.4,3.2-5.6&#10;&#9;&#9;c0.4-2.3,0.3-4.6-0.2-6.8c-0.1-0.8-0.4-1.5-0.8-2.1c-0.3-0.5-0.9-0.9-1.5-0.9c-0.6,0.1-1.1,0.4-1.5,0.8c-1.8,1.7-2.5,4.1-2,6.5&#10;&#9;&#9;c0.1,0.4-0.1,0.8-0.5,0.9s-0.8-0.1-0.9-0.5c0,0,0-0.1,0-0.1c-0.6-2.8,0.3-5.8,2.4-7.8c0.6-0.7,1.4-1.1,2.3-1.2&#10;&#9;&#9;c1.1,0,2.2,0.5,2.8,1.5c0.5,0.8,0.8,1.7,1,2.6c0.6,2.4,0.7,4.9,0.2,7.3c-0.4,2.5-1.8,4.8-3.7,6.4&#10;&#9;&#9;C394.3,227.6,394.2,227.7,394,227.7z"/>
	<path class="st0_team-meeting-75" d="M415,188c1.3,4,3.7,7.5,7,10.2c3.6,3.2,8.3,5,13.1,5.2c3.8-0.1,8-2.1,8.7-5.9c0.4-2.5-0.9-5-2.4-7&#10;&#9;&#9;c-4.4-6.1-11.2-11.3-18.5-13.2c-2.3-0.6-5.5-1.2-7.3,0.7C413.2,180.4,414.1,185.3,415,188z"/>
	<path class="st0_team-meeting-75" d="M434.9,204.1c-4.9-0.2-9.6-2-13.3-5.3c-3.4-2.7-5.9-6.4-7.3-10.5l0,0c-0.6-1.8-2.2-7.8,0.8-10.7&#10;&#9;&#9;c2.1-2,5.3-1.5,8-0.8c7,1.8,14.1,6.9,18.9,13.4c1.3,1.8,3,4.6,2.5,7.5c-0.7,4.1-5.2,6.4-9.4,6.4H434.9z M419.1,177.4&#10;&#9;&#9;c-1.1-0.1-2.2,0.3-3,1.1c-1.9,1.9-1.5,6-0.4,9.3l0,0c1.3,3.9,3.7,7.3,6.9,9.9c3.5,3.1,8,4.9,12.6,5c3.5,0,7.4-1.9,8-5.3&#10;&#9;&#9;c0.3-1.9-0.4-3.9-2.3-6.5c-4.6-6.4-11.4-11.2-18.1-12.9C421.5,177.7,420.3,177.5,419.1,177.4L419.1,177.4z"/>
	<ellipse transform="matrix(0.5 -0.866 0.866 0.5 61.1182 468.6228)" class="st1_team-meeting-75" cx="436.4" cy="181.4" rx="19" ry="21.4"/>
	<path class="st0_team-meeting-75" d="M438.5,201.7c-4.2,0-8.3-1.1-11.9-3.3c-5-2.8-8.7-7.4-10.5-12.8c-1.8-5.1-1.3-10.6,1.4-15.3&#10;&#9;&#9;c5.4-9.4,18.4-12.1,28.9-6s14.7,18.7,9.2,28.1c-2.7,4.6-7.3,7.9-12.6,8.8C441.5,201.6,440,201.7,438.5,201.7z M434.3,162.5&#10;&#9;&#9;c-6.5,0-12.6,3-15.8,8.6c-2.4,4.3-2.9,9.5-1.2,14.2c3.7,10.4,14.4,16.6,25.3,14.6c4.9-0.9,9.1-3.9,11.7-8.2&#10;&#9;&#9;c5-8.7,1.1-20.5-8.7-26.2C442.1,163.6,438.3,162.5,434.3,162.5L434.3,162.5z"/>
</g>
<g id="Book_2_team-meeting-75">
	<path class="st3_team-meeting-75" d="M331.9,394.4h-61.4c-0.4,0-0.7-0.3-0.7-0.7v0v-35.6c0-0.4,0.3-0.7,0.7-0.7h0h61.4c0.4,0,0.7,0.3,0.7,0.7v0&#10;&#9;&#9;v35.6C332.6,394.1,332.3,394.4,331.9,394.4z M271.2,393h60v-34.1h-60V393z"/>
	<path class="st3_team-meeting-75" d="M331.9,400.7h-61.4c-0.4,0-0.7-0.3-0.7-0.7v0v-6.3c0-0.4,0.3-0.7,0.7-0.7h0h61.4c0.4,0,0.7,0.3,0.7,0.7v0v6.3&#10;&#9;&#9;C332.6,400.4,332.3,400.7,331.9,400.7C331.9,400.7,331.9,400.7,331.9,400.7z M271.2,399.3h60v-4.9h-60V399.3z"/>
	<path class="st3_team-meeting-75" d="M288.3,387.2H278c-0.4,0-0.7-0.3-0.7-0.7v0v-22.3c0-0.4,0.3-0.7,0.7-0.7h0h10.3c0.4,0,0.7,0.3,0.7,0.7v0v22.3&#10;&#9;&#9;C289,386.9,288.7,387.3,288.3,387.2C288.3,387.3,288.3,387.3,288.3,387.2z M278.7,385.9h8.9v-20.9h-8.9V385.9z"/>
</g>
<path id="Card_team-meeting-75" class="st3_team-meeting-75" d="M296.4,340.6h-22.6c-0.4,0-0.7-0.3-0.7-0.7v0v-15.2c0-0.4,0.3-0.7,0.7-0.7h0h22.6&#10;&#9;c0.4,0,0.7,0.3,0.7,0.7v0v15.2C297.1,340.3,296.8,340.6,296.4,340.6z M274.5,339.2h21.2v-13.9h-21.2V339.2z"/>
<g id="Chair_2_team-meeting-75">
	<path class="st0_team-meeting-75" d="M457.8,275.8c-10.6,0.4-23.8,1.1-33.5,1.5c-7.6,0.4-13.7,6.3-14.5,13.8l-7.8,80.9h-37.9v31.8l96.4-2.9&#10;&#9;&#9;l13.1-108c1-8.4-4.9-16-13.3-17.1C459.5,275.8,458.7,275.8,457.8,275.8z"/>
	<path class="st0_team-meeting-75" d="M364.1,404.6c-0.2,0-0.4-0.1-0.5-0.2c-0.1-0.1-0.2-0.3-0.2-0.5v-31.8c0-0.4,0.3-0.7,0.7-0.7h0h37.3l7.8-80.3&#10;&#9;&#9;c0.8-7.9,7.2-14,15.1-14.4c9.4-0.5,22.8-1.1,33.5-1.5l0,0c8.8-0.4,16.3,6.5,16.6,15.3c0,0.9,0,1.7-0.1,2.6l-13.1,108&#10;&#9;&#9;c0,0.3-0.3,0.6-0.7,0.6L364.1,404.6L364.1,404.6z M364.8,372.8v30.4l95.1-2.9l13-107.4c1-8-4.7-15.3-12.7-16.3&#10;&#9;&#9;c-0.8-0.1-1.6-0.1-2.4-0.1l0,0c-10.7,0.4-24.1,1.1-33.5,1.5c-7.2,0.4-13.1,6-13.8,13.2l-7.9,80.9c0,0.4-0.3,0.6-0.7,0.6H364.8z&#10;&#9;&#9; M457.8,275.8L457.8,275.8z"/>
</g>
<g id="Chair_3_team-meeting-75">
	<path class="st0_team-meeting-75" d="M42.6,275.9c10.4,0.4,23.2,1,32.7,1.5c7.8,0.4,14.1,6.4,14.9,14.2l7.9,80.6h37.9v31.8L39.4,401l-13-107.5&#10;&#9;&#9;c-1-8.6,5.1-16.5,13.7-17.5C40.9,275.9,41.8,275.8,42.6,275.9z"/>
	<path class="st0_team-meeting-75" d="M135.9,404.6L135.9,404.6l-96.5-2.9c-0.3,0-0.6-0.3-0.7-0.6l-13-107.5c-1.1-9,5.3-17.2,14.3-18.3&#10;&#9;&#9;c0.9-0.1,1.8-0.1,2.7-0.1c10.6,0.4,23.6,1,32.7,1.5c8.1,0.4,14.7,6.7,15.5,14.8l7.8,79.9h37.3c0.4,0,0.7,0.3,0.7,0.7l0,0v31.8&#10;&#9;&#9;c0,0.2-0.1,0.4-0.2,0.5C136.3,404.5,136.1,404.6,135.9,404.6z M40,400.3l95.1,2.9v-30.4H98c-0.4,0-0.7-0.3-0.7-0.6l-7.8-80.6&#10;&#9;&#9;c-0.7-7.4-6.8-13.2-14.3-13.6c-9-0.4-22.1-1.1-32.7-1.5l0,0c-8.3-0.3-15.3,6.1-15.6,14.4c0,0.8,0,1.6,0.1,2.5L40,400.3z"/>
</g>
</svg>