<?xml version="1.0" encoding="iso-8859-1"?>
<!-- Uploaded to: SVG Repo, www.svgrepo.com, Generator: SVG Repo Mixer Tools -->
<!DOCTYPE svg PUBLIC "-//W3C//DTD SVG 1.1//EN" "http://www.w3.org/Graphics/SVG/1.1/DTD/svg11.dtd">
<svg fill="#000000" height="800px" width="800px" version="1.1" id="Capa_1" xmlns="http://www.w3.org/2000/svg" xmlns:xlink="http://www.w3.org/1999/xlink" 
	 viewBox="0 0 372 372" xml:space="preserve">
<g>
	<path d="M371.014,166.8c-0.018-0.196-0.037-0.392-0.067-0.586C361.036,72.922,281.877,0,186,0C83.439,0,0,83.439,0,186
		s83.439,186,186,186s186-83.439,186-186C372,179.518,371.664,173.113,371.014,166.8z M225.5,155.352c-25.916,0-47,21.084-47,47v27
		H150v-27c0-25.916-21.084-47-47-47s-47,21.084-47,47v27H25.754C22.01,215.526,20,200.994,20,186c0-14.506,1.876-28.58,5.388-42
		h321.225c0.979,3.742,1.826,7.538,2.545,11.377c-0.386-0.01-0.771-0.026-1.157-0.026c-25.916,0-47,21.084-47,47v27h-28.5v-27
		C272.5,176.436,251.416,155.352,225.5,155.352z M339.979,124H32.021c0.816-2.019,1.663-4.021,2.555-6h302.848
		C338.316,119.979,339.164,121.981,339.979,124z M186,20c59.231,0,111.307,31.189,140.691,78H45.309
		C74.693,51.189,126.769,20,186,20z M310.207,296H245c-5.522,0-10,4.478-10,10s4.478,10,10,10h44.106
		c-28.34,22.524-64.177,36-103.106,36c-41.731,0-79.909-15.483-109.106-41H78c5.522,0,10-4.478,10-10s-4.478-10-10-10H57.526
		c-1.96-2.394-3.851-4.846-5.677-7.349H66c5.522,0,10-4.478,10-10s-4.478-10-10-10H39.32c-2.467-4.641-4.72-9.411-6.746-14.3H66
		c5.522,0,10-4.478,10-10v-37c0-14.888,12.112-27,27-27s27,12.112,27,27v37c0,5.522,4.478,10,10,10h48.5c5.522,0,10-4.478,10-10v-37
		c0-14.888,12.112-27,27-27s27,12.112,27,27v37c0,5.522,4.478,10,10,10H311c5.522,0,10-4.478,10-10v-37c0-14.888,12.112-27,27-27
		c1.237,0,2.457,0.109,3.666,0.273c0.213,3.433,0.334,6.89,0.334,10.375C352,228.159,336.193,266.69,310.207,296z"/>
	<path d="M139,283.651h45.5c5.522,0,10-4.478,10-10s-4.478-10-10-10H139c-5.522,0-10,4.478-10,10S133.478,283.651,139,283.651z"/>
	<path d="M206,296h-86c-5.522,0-10,4.478-10,10s4.478,10,10,10h86c5.522,0,10-4.478,10-10S211.522,296,206,296z"/>
	<path d="M313,263.651h-51c-5.522,0-10,4.478-10,10s4.478,10,10,10h51c5.522,0,10-4.478,10-10S318.522,263.651,313,263.651z"/>
</g>
</svg>