<svg width="196" height="32" viewBox="0 0 196 32" fill="none" xmlns="http://www.w3.org/2000/svg">
<path d="M31.8413 14.3484C31.8398 14.3315 31.8381 14.3147 31.8356 14.298C30.985 6.27286 24.1914 0 15.963 0C7.16093 0 0 7.17755 0 16C0 24.8225 7.16093 32 15.963 32C24.765 32 31.9259 24.8225 31.9259 16C31.9259 15.4424 31.8971 14.8914 31.8413 14.3484ZM19.3529 13.3636C17.1288 13.3636 15.3193 15.1773 15.3193 17.4066V19.7292H12.8734V17.4066C12.8734 15.1773 11.0639 13.3636 8.8397 13.3636C6.61553 13.3636 4.80605 15.1773 4.80605 17.4066V19.7292H2.21027C1.88895 18.5399 1.71645 17.2898 1.71645 16C1.71645 14.7522 1.87745 13.5415 2.17886 12.3871H29.7472C29.8312 12.709 29.9039 13.0355 29.9656 13.3658C29.9324 13.3649 29.8994 13.3635 29.8663 13.3635C27.6421 13.3635 25.8326 15.1772 25.8326 17.4065V19.7291H23.3867V17.4065C23.3866 15.1773 21.5771 13.3636 19.3529 13.3636ZM29.1778 10.6667H2.74812C2.81815 10.493 2.89084 10.3208 2.96739 10.1505H28.9585C29.0351 10.3208 29.1079 10.493 29.1778 10.6667ZM15.963 1.72043C21.0463 1.72043 25.5156 4.40335 28.0374 8.43011H3.88853C6.41033 4.40335 10.8796 1.72043 15.963 1.72043ZM26.6227 25.4624H21.0265C20.5526 25.4624 20.1683 25.8476 20.1683 26.3226C20.1683 26.7976 20.5526 27.1828 21.0265 27.1828H24.8118C22.3796 29.1203 19.3039 30.2796 15.963 30.2796C12.3815 30.2796 9.10498 28.9477 6.59923 26.7527H6.69415C7.16806 26.7527 7.55237 26.3675 7.55237 25.8925C7.55237 25.4175 7.16806 25.0323 6.69415 25.0323H4.93702C4.76881 24.8263 4.60652 24.6154 4.4498 24.4001H5.66428C6.13819 24.4001 6.5225 24.0149 6.5225 23.5399C6.5225 23.0649 6.13819 22.6797 5.66428 22.6797H3.37454C3.16281 22.2804 2.96945 21.8701 2.79558 21.4495H5.66428C6.13819 21.4495 6.5225 21.0643 6.5225 20.5893V17.4065C6.5225 16.1258 7.56198 15.084 8.8397 15.084C10.1174 15.084 11.1569 16.1258 11.1569 17.4065V20.5893C11.1569 21.0643 11.5412 21.4495 12.0151 21.4495H16.1775C16.6514 21.4495 17.0357 21.0643 17.0357 20.5893V17.4065C17.0357 16.1258 18.0752 15.084 19.3529 15.084C20.6307 15.084 21.6701 16.1258 21.6701 17.4065V20.5893C21.6701 21.0643 22.0545 21.4495 22.5284 21.4495H26.6908C27.1647 21.4495 27.549 21.0643 27.549 20.5893V17.4065C27.549 16.1258 28.5885 15.084 29.8662 15.084C29.9723 15.084 30.0771 15.0933 30.1808 15.1074C30.1991 15.4028 30.2095 15.7001 30.2095 15.9999C30.2095 19.6266 28.8529 22.9411 26.6227 25.4624Z" fill="#1A365D"/>
<path d="M11.9293 24.4001H15.8342C16.3081 24.4001 16.6924 24.0149 16.6924 23.5398C16.6924 23.0648 16.3081 22.6796 15.8342 22.6796H11.9293C11.4554 22.6796 11.071 23.0648 11.071 23.5398C11.071 24.0149 11.4554 24.4001 11.9293 24.4001Z" fill="#1A365D"/>
<path d="M17.6794 25.4624H10.2987C9.82474 25.4624 9.44043 25.8476 9.44043 26.3226C9.44043 26.7976 9.82474 27.1828 10.2987 27.1828H17.6794C18.1533 27.1828 18.5376 26.7976 18.5376 26.3226C18.5376 25.8476 18.1533 25.4624 17.6794 25.4624Z" fill="#1A365D"/>
<path d="M26.8625 22.6796H22.4855C22.0116 22.6796 21.6273 23.0648 21.6273 23.5398C21.6273 24.0149 22.0116 24.4001 22.4855 24.4001H26.8625C27.3364 24.4001 27.7207 24.0149 27.7207 23.5398C27.7207 23.0648 27.3364 22.6796 26.8625 22.6796Z" fill="#1A365D"/>
<path d="M37.8693 11.3153V9.90909H47.6875V11.3153H43.571V23H41.9858V11.3153H37.8693ZM51.438 17.0938V23H49.9295V9.90909H51.438V14.7159H51.5659C51.796 14.2088 52.1412 13.8061 52.6014 13.5078C53.0659 13.2053 53.6838 13.054 54.4551 13.054C55.1241 13.054 55.71 13.1882 56.2129 13.4567C56.7157 13.7209 57.1056 14.1278 57.3826 14.6776C57.6639 15.223 57.8045 15.9176 57.8045 16.7614V23H56.296V16.8636C56.296 16.0838 56.0936 15.4808 55.6887 15.0547C55.2882 14.6243 54.7321 14.4091 54.0204 14.4091C53.5261 14.4091 53.0829 14.5135 52.6909 14.7223C52.3031 14.9311 51.9963 15.2358 51.7704 15.6364C51.5488 16.0369 51.438 16.5227 51.438 17.0938ZM64.6808 23.2045C63.7347 23.2045 62.9187 22.9957 62.2326 22.5781C61.5508 22.1562 61.0245 21.5682 60.6538 20.8139C60.2873 20.0554 60.104 19.1733 60.104 18.1676C60.104 17.1619 60.2873 16.2756 60.6538 15.5085C61.0245 14.7372 61.5401 14.1364 62.2006 13.706C62.8654 13.2713 63.641 13.054 64.5273 13.054C65.0387 13.054 65.5437 13.1392 66.0423 13.3097C66.5408 13.4801 66.9947 13.7571 67.4038 14.1406C67.8129 14.5199 68.1388 15.0227 68.3817 15.6491C68.6246 16.2756 68.7461 17.0469 68.7461 17.9631V18.6023H61.1779V17.2983H67.212C67.212 16.7443 67.1012 16.25 66.8796 15.8153C66.6623 15.3807 66.3512 15.0376 65.9464 14.7862C65.5458 14.5348 65.0728 14.4091 64.5273 14.4091C63.9265 14.4091 63.4066 14.5582 62.9677 14.8565C62.533 15.1506 62.1985 15.5341 61.9641 16.0071C61.7298 16.4801 61.6126 16.9872 61.6126 17.5284V18.3977C61.6126 19.1392 61.7404 19.7678 61.9961 20.2834C62.256 20.7947 62.6161 21.1847 63.0763 21.4531C63.5366 21.7173 64.0714 21.8494 64.6808 21.8494C65.0771 21.8494 65.435 21.794 65.7546 21.6832C66.0785 21.5682 66.3576 21.3977 66.592 21.1719C66.8263 20.9418 67.0075 20.6562 67.1353 20.3153L68.5927 20.7244C68.4393 21.2188 68.1815 21.6534 67.8192 22.0284C67.457 22.3991 67.0096 22.6889 66.4769 22.8977C65.9442 23.1023 65.3455 23.2045 64.6808 23.2045ZM76.3079 23V9.90909H80.8846C81.7965 9.90909 82.5487 10.0668 83.141 10.3821C83.7333 10.6932 84.1744 11.1129 84.4641 11.6413C84.7539 12.1655 84.8988 12.7472 84.8988 13.3864C84.8988 13.9489 84.7987 14.4134 84.5984 14.7798C84.4023 15.1463 84.1424 15.4361 83.8185 15.6491C83.4989 15.8622 83.1516 16.0199 82.7766 16.1222V16.25C83.1772 16.2756 83.5799 16.4162 83.9847 16.6719C84.3896 16.9276 84.7283 17.294 85.0011 17.7713C85.2738 18.2486 85.4102 18.8324 85.4102 19.5227C85.4102 20.179 85.261 20.7692 84.9627 21.2933C84.6644 21.8175 84.1935 22.233 83.5501 22.5398C82.9066 22.8466 82.0692 23 81.038 23H76.3079ZM77.8931 21.5938H81.038C82.0735 21.5938 82.8086 21.3935 83.2433 20.9929C83.6822 20.5881 83.9016 20.098 83.9016 19.5227C83.9016 19.0795 83.7887 18.6705 83.5629 18.2955C83.337 17.9162 83.0153 17.6136 82.5977 17.3878C82.18 17.1577 81.6857 17.0426 81.1147 17.0426H77.8931V21.5938ZM77.8931 15.6619H80.8335C81.3107 15.6619 81.7411 15.5682 82.1246 15.3807C82.5124 15.1932 82.8192 14.929 83.0451 14.5881C83.2752 14.2472 83.3903 13.8466 83.3903 13.3864C83.3903 12.8111 83.19 12.3232 82.7894 11.9226C82.3888 11.5178 81.7539 11.3153 80.8846 11.3153H77.8931V15.6619ZM87.8104 23V13.1818H89.2678V14.6648H89.37C89.549 14.179 89.8729 13.7848 90.3416 13.4822C90.8104 13.1797 91.3388 13.0284 91.9268 13.0284C92.0376 13.0284 92.1761 13.0305 92.3423 13.0348C92.5085 13.0391 92.6342 13.0455 92.7195 13.054V14.5881C92.6683 14.5753 92.5511 14.5561 92.3679 14.5305C92.1889 14.5007 91.9993 14.4858 91.799 14.4858C91.3217 14.4858 90.8956 14.5859 90.5206 14.7862C90.1499 14.9822 89.8558 15.255 89.6385 15.6044C89.4254 15.9496 89.3189 16.3437 89.3189 16.7869V23H87.8104ZM94.5076 23V13.1818H96.0162V23H94.5076ZM95.2747 11.5455C94.9806 11.5455 94.7271 11.4453 94.514 11.245C94.3052 11.0447 94.2008 10.804 94.2008 10.5227C94.2008 10.2415 94.3052 10.0007 94.514 9.80043C94.7271 9.60014 94.9806 9.5 95.2747 9.5C95.5687 9.5 95.8201 9.60014 96.0289 9.80043C96.242 10.0007 96.3485 10.2415 96.3485 10.5227C96.3485 10.804 96.242 11.0447 96.0289 11.245C95.8201 11.4453 95.5687 11.5455 95.2747 11.5455ZM102.487 23.2045C101.668 23.2045 100.946 22.9979 100.32 22.5845C99.6932 22.1669 99.2031 21.5788 98.8494 20.8203C98.4957 20.0575 98.3189 19.1562 98.3189 18.1165C98.3189 17.0852 98.4957 16.1903 98.8494 15.4318C99.2031 14.6733 99.6953 14.0874 100.326 13.674C100.957 13.2607 101.685 13.054 102.512 13.054C103.151 13.054 103.656 13.1605 104.027 13.3736C104.402 13.5824 104.688 13.821 104.884 14.0895C105.084 14.3537 105.239 14.571 105.35 14.7415H105.478V9.90909H106.987V23H105.529V21.4915H105.35C105.239 21.6705 105.082 21.8963 104.877 22.169C104.673 22.4375 104.381 22.6783 104.001 22.8913C103.622 23.1001 103.117 23.2045 102.487 23.2045ZM102.691 21.8494C103.296 21.8494 103.808 21.6918 104.225 21.3764C104.643 21.0568 104.96 20.6158 105.178 20.0533C105.395 19.4865 105.504 18.8324 105.504 18.0909C105.504 17.358 105.397 16.7166 105.184 16.1669C104.971 15.6129 104.656 15.1825 104.238 14.8757C103.82 14.5646 103.305 14.4091 102.691 14.4091C102.052 14.4091 101.519 14.5732 101.093 14.9013C100.671 15.2251 100.354 15.6662 100.141 16.2244C99.9318 16.7784 99.8274 17.4006 99.8274 18.0909C99.8274 18.7898 99.9339 19.4247 100.147 19.9957C100.364 20.5625 100.684 21.0142 101.106 21.3509C101.532 21.6832 102.06 21.8494 102.691 21.8494ZM113.922 26.8864C113.193 26.8864 112.567 26.7926 112.043 26.6051C111.518 26.4219 111.082 26.179 110.732 25.8764C110.387 25.5781 110.112 25.2585 109.908 24.9176L111.109 24.0739C111.246 24.2528 111.418 24.4574 111.627 24.6875C111.836 24.9219 112.121 25.1243 112.484 25.2947C112.85 25.4695 113.33 25.5568 113.922 25.5568C114.714 25.5568 115.369 25.3651 115.884 24.9815C116.4 24.598 116.658 23.9972 116.658 23.179V21.1847H116.53C116.419 21.3636 116.261 21.5852 116.057 21.8494C115.857 22.1094 115.567 22.3416 115.188 22.5462C114.812 22.7464 114.305 22.8466 113.666 22.8466C112.874 22.8466 112.162 22.6591 111.531 22.2841C110.905 21.9091 110.408 21.3636 110.042 20.6477C109.68 19.9318 109.499 19.0625 109.499 18.0398C109.499 17.0341 109.675 16.1584 110.029 15.4126C110.383 14.6626 110.875 14.0831 111.506 13.674C112.136 13.2607 112.865 13.054 113.692 13.054C114.331 13.054 114.838 13.1605 115.213 13.3736C115.592 13.5824 115.882 13.821 116.082 14.0895C116.287 14.3537 116.445 14.571 116.555 14.7415H116.709V13.1818H118.166V23.2812C118.166 24.125 117.974 24.8111 117.591 25.3395C117.212 25.8722 116.7 26.2621 116.057 26.5092C115.418 26.7607 114.706 26.8864 113.922 26.8864ZM113.871 21.4915C114.476 21.4915 114.987 21.353 115.405 21.076C115.822 20.799 116.14 20.4006 116.357 19.8807C116.575 19.3608 116.683 18.7386 116.683 18.0142C116.683 17.3068 116.577 16.6825 116.364 16.1413C116.151 15.6001 115.835 15.1761 115.418 14.8693C115 14.5625 114.484 14.4091 113.871 14.4091C113.232 14.4091 112.699 14.571 112.273 14.8949C111.851 15.2187 111.533 15.6534 111.32 16.1989C111.112 16.7443 111.007 17.3494 111.007 18.0142C111.007 18.696 111.114 19.299 111.327 19.8232C111.544 20.343 111.864 20.7521 112.286 21.0504C112.712 21.3445 113.24 21.4915 113.871 21.4915ZM125.044 23.2045C124.098 23.2045 123.282 22.9957 122.596 22.5781C121.914 22.1562 121.388 21.5682 121.017 20.8139C120.651 20.0554 120.467 19.1733 120.467 18.1676C120.467 17.1619 120.651 16.2756 121.017 15.5085C121.388 14.7372 121.903 14.1364 122.564 13.706C123.229 13.2713 124.004 13.054 124.891 13.054C125.402 13.054 125.907 13.1392 126.406 13.3097C126.904 13.4801 127.358 13.7571 127.767 14.1406C128.176 14.5199 128.502 15.0227 128.745 15.6491C128.988 16.2756 129.109 17.0469 129.109 17.9631V18.6023H121.541V17.2983H127.575C127.575 16.7443 127.464 16.25 127.243 15.8153C127.026 15.3807 126.714 15.0376 126.31 14.7862C125.909 14.5348 125.436 14.4091 124.891 14.4091C124.29 14.4091 123.77 14.5582 123.331 14.8565C122.896 15.1506 122.562 15.5341 122.327 16.0071C122.093 16.4801 121.976 16.9872 121.976 17.5284V18.3977C121.976 19.1392 122.104 19.7678 122.359 20.2834C122.619 20.7947 122.979 21.1847 123.44 21.4531C123.9 21.7173 124.435 21.8494 125.044 21.8494C125.44 21.8494 125.798 21.794 126.118 21.6832C126.442 21.5682 126.721 21.3977 126.955 21.1719C127.19 20.9418 127.371 20.6562 127.499 20.3153L128.956 20.7244C128.803 21.2188 128.545 21.6534 128.183 22.0284C127.82 22.3991 127.373 22.6889 126.84 22.8977C126.308 23.1023 125.709 23.2045 125.044 23.2045ZM136.671 23V9.90909H141.094C142.121 9.90909 142.961 10.0945 143.613 10.4652C144.269 10.8317 144.755 11.3281 145.07 11.9545C145.386 12.581 145.543 13.2798 145.543 14.0511C145.543 14.8224 145.386 15.5234 145.07 16.1541C144.759 16.7848 144.278 17.2876 143.626 17.6626C142.974 18.0334 142.138 18.2188 141.12 18.2188H137.95V16.8125H141.069C141.772 16.8125 142.337 16.6911 142.763 16.4482C143.189 16.2053 143.498 15.8771 143.69 15.4638C143.886 15.0462 143.984 14.5753 143.984 14.0511C143.984 13.527 143.886 13.0582 143.69 12.6449C143.498 12.2315 143.187 11.9077 142.756 11.6733C142.326 11.4347 141.755 11.3153 141.043 11.3153H138.256V23H136.671ZM147.892 23V13.1818H149.35V14.6648H149.452C149.631 14.179 149.955 13.7848 150.424 13.4822C150.892 13.1797 151.421 13.0284 152.009 13.0284C152.12 13.0284 152.258 13.0305 152.424 13.0348C152.591 13.0391 152.716 13.0455 152.801 13.054V14.5881C152.75 14.5753 152.633 14.5561 152.45 14.5305C152.271 14.5007 152.081 14.4858 151.881 14.4858C151.404 14.4858 150.978 14.5859 150.603 14.7862C150.232 14.9822 149.938 15.255 149.721 15.6044C149.507 15.9496 149.401 16.3437 149.401 16.7869V23H147.892ZM158.279 23.2045C157.393 23.2045 156.615 22.9936 155.946 22.5717C155.282 22.1499 154.762 21.5597 154.387 20.8011C154.016 20.0426 153.831 19.1562 153.831 18.142C153.831 17.1193 154.016 16.2266 154.387 15.4638C154.762 14.701 155.282 14.1087 155.946 13.6868C156.615 13.2649 157.393 13.054 158.279 13.054C159.166 13.054 159.941 13.2649 160.606 13.6868C161.275 14.1087 161.795 14.701 162.166 15.4638C162.541 16.2266 162.728 17.1193 162.728 18.142C162.728 19.1562 162.541 20.0426 162.166 20.8011C161.795 21.5597 161.275 22.1499 160.606 22.5717C159.941 22.9936 159.166 23.2045 158.279 23.2045ZM158.279 21.8494C158.953 21.8494 159.507 21.6768 159.941 21.3317C160.376 20.9865 160.698 20.5327 160.907 19.9702C161.115 19.4077 161.22 18.7983 161.22 18.142C161.22 17.4858 161.115 16.8743 160.907 16.3075C160.698 15.7408 160.376 15.2827 159.941 14.9332C159.507 14.5838 158.953 14.4091 158.279 14.4091C157.606 14.4091 157.052 14.5838 156.618 14.9332C156.183 15.2827 155.861 15.7408 155.652 16.3075C155.444 16.8743 155.339 17.4858 155.339 18.142C155.339 18.7983 155.444 19.4077 155.652 19.9702C155.861 20.5327 156.183 20.9865 156.618 21.3317C157.052 21.6768 157.606 21.8494 158.279 21.8494ZM165.031 13.1818H166.54V23.7159C166.54 24.321 166.435 24.8452 166.226 25.2884C166.022 25.7315 165.711 26.0746 165.293 26.3175C164.88 26.5604 164.358 26.6818 163.727 26.6818C163.676 26.6818 163.625 26.6818 163.574 26.6818C163.523 26.6818 163.471 26.6818 163.42 26.6818V25.2756C163.471 25.2756 163.518 25.2756 163.561 25.2756C163.604 25.2756 163.65 25.2756 163.702 25.2756C164.162 25.2756 164.498 25.1392 164.711 24.8665C164.925 24.598 165.031 24.2145 165.031 23.7159V13.1818ZM165.773 11.5455C165.479 11.5455 165.225 11.4453 165.012 11.245C164.803 11.0447 164.699 10.804 164.699 10.5227C164.699 10.2415 164.803 10.0007 165.012 9.80043C165.225 9.60014 165.479 9.5 165.773 9.5C166.067 9.5 166.318 9.60014 166.527 9.80043C166.74 10.0007 166.846 10.2415 166.846 10.5227C166.846 10.804 166.74 11.0447 166.527 11.245C166.318 11.4453 166.067 11.5455 165.773 11.5455ZM173.419 23.2045C172.473 23.2045 171.657 22.9957 170.971 22.5781C170.289 22.1562 169.763 21.5682 169.392 20.8139C169.026 20.0554 168.842 19.1733 168.842 18.1676C168.842 17.1619 169.026 16.2756 169.392 15.5085C169.763 14.7372 170.278 14.1364 170.939 13.706C171.604 13.2713 172.379 13.054 173.266 13.054C173.777 13.054 174.282 13.1392 174.781 13.3097C175.279 13.4801 175.733 13.7571 176.142 14.1406C176.551 14.5199 176.877 15.0227 177.12 15.6491C177.363 16.2756 177.484 17.0469 177.484 17.9631V18.6023H169.916V17.2983H175.95C175.95 16.7443 175.839 16.25 175.618 15.8153C175.401 15.3807 175.089 15.0376 174.685 14.7862C174.284 14.5348 173.811 14.4091 173.266 14.4091C172.665 14.4091 172.145 14.5582 171.706 14.8565C171.271 15.1506 170.937 15.5341 170.702 16.0071C170.468 16.4801 170.351 16.9872 170.351 17.5284V18.3977C170.351 19.1392 170.479 19.7678 170.734 20.2834C170.994 20.7947 171.354 21.1847 171.815 21.4531C172.275 21.7173 172.81 21.8494 173.419 21.8494C173.815 21.8494 174.173 21.794 174.493 21.6832C174.817 21.5682 175.096 21.3977 175.33 21.1719C175.565 20.9418 175.746 20.6562 175.874 20.3153L177.331 20.7244C177.178 21.2188 176.92 21.6534 176.558 22.0284C176.195 22.3991 175.748 22.6889 175.215 22.8977C174.683 23.1023 174.084 23.2045 173.419 23.2045ZM183.768 23.2045C182.847 23.2045 182.055 22.9872 181.39 22.5526C180.725 22.1179 180.214 21.5192 179.856 20.7564C179.498 19.9936 179.319 19.1222 179.319 18.142C179.319 17.1449 179.502 16.2649 179.869 15.5021C180.239 14.7351 180.755 14.1364 181.415 13.706C182.08 13.2713 182.856 13.054 183.742 13.054C184.433 13.054 185.055 13.1818 185.609 13.4375C186.163 13.6932 186.616 14.0511 186.97 14.5114C187.324 14.9716 187.543 15.5085 187.629 16.1222H186.12C186.005 15.6747 185.749 15.2784 185.353 14.9332C184.961 14.5838 184.433 14.4091 183.768 14.4091C183.18 14.4091 182.664 14.5625 182.221 14.8693C181.782 15.1719 181.439 15.6001 181.192 16.1541C180.949 16.7038 180.827 17.3494 180.827 18.0909C180.827 18.8494 180.947 19.5099 181.185 20.0724C181.428 20.6349 181.769 21.0717 182.208 21.3828C182.651 21.6939 183.171 21.8494 183.768 21.8494C184.16 21.8494 184.516 21.7812 184.835 21.6449C185.155 21.5085 185.425 21.3125 185.647 21.0568C185.869 20.8011 186.026 20.4943 186.12 20.1364H187.629C187.543 20.7159 187.332 21.2379 186.996 21.7024C186.663 22.1626 186.222 22.5291 185.673 22.8018C185.127 23.0703 184.492 23.2045 183.768 23.2045ZM194.104 13.1818V14.4602H189.016V13.1818H194.104ZM190.499 10.8295H192.007V20.1875C192.007 20.6136 192.069 20.9332 192.192 21.1463C192.32 21.3551 192.482 21.4957 192.678 21.5682C192.879 21.6364 193.089 21.6705 193.311 21.6705C193.477 21.6705 193.614 21.6619 193.72 21.6449C193.827 21.6236 193.912 21.6065 193.976 21.5938L194.283 22.9489C194.18 22.9872 194.038 23.0256 193.854 23.0639C193.671 23.1065 193.439 23.1278 193.158 23.1278C192.732 23.1278 192.314 23.0362 191.905 22.853C191.5 22.6697 191.163 22.3906 190.895 22.0156C190.631 21.6406 190.499 21.1676 190.499 20.5966V10.8295Z" fill="#1A365D"/>
</svg>
